%TF.GenerationSoftware,KiCad,Pcbnew,(5.1.6)-1*%
%TF.CreationDate,2021-07-08T13:54:37-04:00*%
%TF.ProjectId,Turbo-Display-V3-Simple,54757262-6f2d-4446-9973-706c61792d56,rev?*%
%TF.SameCoordinates,Original*%
%TF.FileFunction,Soldermask,Top*%
%TF.FilePolarity,Negative*%
%FSLAX46Y46*%
G04 Gerber Fmt 4.6, Leading zero omitted, Abs format (unit mm)*
G04 Created by KiCad (PCBNEW (5.1.6)-1) date 2021-07-08 13:54:37*
%MOMM*%
%LPD*%
G01*
G04 APERTURE LIST*
%ADD10R,1.465000X1.465000*%
%ADD11C,1.465000*%
%ADD12R,0.750000X2.025000*%
%ADD13R,1.800000X1.800000*%
%ADD14O,1.800000X1.800000*%
%ADD15R,1.700000X1.700000*%
%ADD16O,1.700000X1.700000*%
G04 APERTURE END LIST*
D10*
%TO.C,DS1*%
X129540000Y-78105000D03*
D11*
X132080000Y-78105000D03*
X134620000Y-78105000D03*
X137160000Y-78105000D03*
X139700000Y-78105000D03*
X142240000Y-78105000D03*
X144780000Y-78105000D03*
X144780000Y-88265000D03*
X137160000Y-88265000D03*
X134620000Y-88265000D03*
X129540000Y-88265000D03*
X127000000Y-88265000D03*
%TD*%
D12*
%TO.C,IC1*%
X138303000Y-101867000D03*
X139573000Y-101867000D03*
X140843000Y-101867000D03*
X142113000Y-101867000D03*
X143383000Y-101867000D03*
X144653000Y-101867000D03*
X145923000Y-101867000D03*
X147193000Y-101867000D03*
X148463000Y-101867000D03*
X149733000Y-101867000D03*
X151003000Y-101867000D03*
X152273000Y-101867000D03*
X152273000Y-92443000D03*
X151003000Y-92443000D03*
X149733000Y-92443000D03*
X148463000Y-92443000D03*
X147193000Y-92443000D03*
X145923000Y-92443000D03*
X144653000Y-92443000D03*
X143383000Y-92443000D03*
X142113000Y-92443000D03*
X140843000Y-92443000D03*
X139573000Y-92443000D03*
X138303000Y-92443000D03*
%TD*%
D13*
%TO.C,5V*%
X123063000Y-95631000D03*
D14*
X123063000Y-98171000D03*
%TD*%
D13*
%TO.C,IN*%
X130175000Y-105537000D03*
D14*
X132715000Y-105537000D03*
%TD*%
%TO.C,OUT*%
X139573000Y-105537000D03*
D13*
X142113000Y-105537000D03*
%TD*%
D15*
%TO.C,U1*%
X127508000Y-93345000D03*
D16*
X135128000Y-100965000D03*
X127508000Y-95885000D03*
X135128000Y-98425000D03*
X127508000Y-98425000D03*
X135128000Y-95885000D03*
X127508000Y-100965000D03*
X135128000Y-93345000D03*
%TD*%
M02*
