%TF.GenerationSoftware,KiCad,Pcbnew,(5.1.6)-1*%
%TF.CreationDate,2021-07-08T13:54:38-04:00*%
%TF.ProjectId,Turbo-Display-V3-Simple,54757262-6f2d-4446-9973-706c61792d56,rev?*%
%TF.SameCoordinates,Original*%
%TF.FileFunction,Profile,NP*%
%FSLAX46Y46*%
G04 Gerber Fmt 4.6, Leading zero omitted, Abs format (unit mm)*
G04 Created by KiCad (PCBNEW (5.1.6)-1) date 2021-07-08 13:54:38*
%MOMM*%
%LPD*%
G01*
G04 APERTURE LIST*
%TA.AperFunction,Profile*%
%ADD10C,0.050000*%
%TD*%
G04 APERTURE END LIST*
D10*
X120015000Y-88138000D02*
X118160614Y-88138000D01*
X120015000Y-108331000D02*
X120015000Y-88138000D01*
X120015000Y-78486000D02*
X118160614Y-78486000D01*
X120015000Y-74803000D02*
X120015000Y-78486000D01*
X154305000Y-88138000D02*
X156159386Y-88138000D01*
X154305000Y-108331000D02*
X154305000Y-88138000D01*
X154305000Y-78486000D02*
X156159386Y-78486000D01*
X154305000Y-74803000D02*
X154305000Y-78486000D01*
X159258000Y-85039386D02*
G75*
G02*
X156159386Y-88138000I-3098614J0D01*
G01*
X156159386Y-78486000D02*
G75*
G02*
X159258000Y-81584614I0J-3098614D01*
G01*
X118160614Y-88138000D02*
G75*
G02*
X115062000Y-85039386I0J3098614D01*
G01*
X115062000Y-81584614D02*
G75*
G02*
X118160614Y-78486000I3098614J0D01*
G01*
X120015000Y-85039386D02*
X115062000Y-85039386D01*
X120015000Y-81584614D02*
X115062000Y-81584614D01*
X120015000Y-81584614D02*
G75*
G02*
X120015000Y-85039386I0J-1727386D01*
G01*
X154305000Y-85039386D02*
X159258000Y-85039386D01*
X154305000Y-81584614D02*
X159258000Y-81584614D01*
X154305000Y-85039386D02*
G75*
G02*
X154305000Y-81584614I0J1727386D01*
G01*
X120015000Y-74803000D02*
X154305000Y-74803000D01*
X120650000Y-108331000D02*
X120015000Y-108331000D01*
X120650000Y-108331000D02*
X154305000Y-108331000D01*
M02*
