%TF.GenerationSoftware,KiCad,Pcbnew,(5.1.6)-1*%
%TF.CreationDate,2021-07-08T13:54:37-04:00*%
%TF.ProjectId,Turbo-Display-V3-Simple,54757262-6f2d-4446-9973-706c61792d56,rev?*%
%TF.SameCoordinates,Original*%
%TF.FileFunction,Copper,L2,Bot*%
%TF.FilePolarity,Positive*%
%FSLAX46Y46*%
G04 Gerber Fmt 4.6, Leading zero omitted, Abs format (unit mm)*
G04 Created by KiCad (PCBNEW (5.1.6)-1) date 2021-07-08 13:54:37*
%MOMM*%
%LPD*%
G01*
G04 APERTURE LIST*
%TA.AperFunction,ComponentPad*%
%ADD10R,1.365000X1.365000*%
%TD*%
%TA.AperFunction,ComponentPad*%
%ADD11C,1.365000*%
%TD*%
%TA.AperFunction,ComponentPad*%
%ADD12R,1.700000X1.700000*%
%TD*%
%TA.AperFunction,ComponentPad*%
%ADD13O,1.700000X1.700000*%
%TD*%
%TA.AperFunction,ComponentPad*%
%ADD14R,1.600000X1.600000*%
%TD*%
%TA.AperFunction,ComponentPad*%
%ADD15O,1.600000X1.600000*%
%TD*%
%TA.AperFunction,ViaPad*%
%ADD16C,0.800000*%
%TD*%
%TA.AperFunction,Conductor*%
%ADD17C,0.500000*%
%TD*%
%TA.AperFunction,Conductor*%
%ADD18C,0.254000*%
%TD*%
G04 APERTURE END LIST*
%TO.P,C1,1*%
%TO.N,+5V*%
%TA.AperFunction,SMDPad,CuDef*%
G36*
G01*
X122479000Y-101415001D02*
X122479000Y-100514999D01*
G75*
G02*
X122728999Y-100265000I249999J0D01*
G01*
X123379001Y-100265000D01*
G75*
G02*
X123629000Y-100514999I0J-249999D01*
G01*
X123629000Y-101415001D01*
G75*
G02*
X123379001Y-101665000I-249999J0D01*
G01*
X122728999Y-101665000D01*
G75*
G02*
X122479000Y-101415001I0J249999D01*
G01*
G37*
%TD.AperFunction*%
%TO.P,C1,2*%
%TO.N,GND*%
%TA.AperFunction,SMDPad,CuDef*%
G36*
G01*
X124529000Y-101415001D02*
X124529000Y-100514999D01*
G75*
G02*
X124778999Y-100265000I249999J0D01*
G01*
X125429001Y-100265000D01*
G75*
G02*
X125679000Y-100514999I0J-249999D01*
G01*
X125679000Y-101415001D01*
G75*
G02*
X125429001Y-101665000I-249999J0D01*
G01*
X124778999Y-101665000D01*
G75*
G02*
X124529000Y-101415001I0J249999D01*
G01*
G37*
%TD.AperFunction*%
%TD*%
%TO.P,C2,2*%
%TO.N,GND*%
%TA.AperFunction,SMDPad,CuDef*%
G36*
G01*
X144202999Y-97351000D02*
X145103001Y-97351000D01*
G75*
G02*
X145353000Y-97600999I0J-249999D01*
G01*
X145353000Y-98251001D01*
G75*
G02*
X145103001Y-98501000I-249999J0D01*
G01*
X144202999Y-98501000D01*
G75*
G02*
X143953000Y-98251001I0J249999D01*
G01*
X143953000Y-97600999D01*
G75*
G02*
X144202999Y-97351000I249999J0D01*
G01*
G37*
%TD.AperFunction*%
%TO.P,C2,1*%
%TO.N,+5V*%
%TA.AperFunction,SMDPad,CuDef*%
G36*
G01*
X144202999Y-95301000D02*
X145103001Y-95301000D01*
G75*
G02*
X145353000Y-95550999I0J-249999D01*
G01*
X145353000Y-96201001D01*
G75*
G02*
X145103001Y-96451000I-249999J0D01*
G01*
X144202999Y-96451000D01*
G75*
G02*
X143953000Y-96201001I0J249999D01*
G01*
X143953000Y-95550999D01*
G75*
G02*
X144202999Y-95301000I249999J0D01*
G01*
G37*
%TD.AperFunction*%
%TD*%
D10*
%TO.P,DS1,1*%
%TO.N,/DIG1*%
X129540000Y-78105000D03*
D11*
%TO.P,DS1,2*%
%TO.N,/SEGE*%
X132080000Y-78105000D03*
%TO.P,DS1,3*%
%TO.N,/SEGC*%
X134620000Y-78105000D03*
%TO.P,DS1,4*%
%TO.N,/SEGD*%
X137160000Y-78105000D03*
%TO.P,DS1,5*%
%TO.N,/DIG2*%
X139700000Y-78105000D03*
%TO.P,DS1,6*%
%TO.N,/SEGDP*%
X142240000Y-78105000D03*
%TO.P,DS1,7*%
%TO.N,/DIG3*%
X144780000Y-78105000D03*
%TO.P,DS1,8*%
%TO.N,/SEGG*%
X144780000Y-88265000D03*
%TO.P,DS1,11*%
%TO.N,/SEGB*%
X137160000Y-88265000D03*
%TO.P,DS1,12*%
%TO.N,/SEGA*%
X134620000Y-88265000D03*
%TO.P,DS1,14*%
%TO.N,Net-(DS1-Pad14)*%
X129540000Y-88265000D03*
%TO.P,DS1,15*%
%TO.N,/SEGF*%
X127000000Y-88265000D03*
%TD*%
D12*
%TO.P,5V,1*%
%TO.N,GND*%
X123063000Y-95631000D03*
D13*
%TO.P,5V,2*%
%TO.N,+5V*%
X123063000Y-98171000D03*
%TD*%
D12*
%TO.P,IN,1*%
%TO.N,GND*%
X130175000Y-105537000D03*
D13*
%TO.P,IN,2*%
%TO.N,/TLED_IN*%
X132715000Y-105537000D03*
%TD*%
%TO.P,OUT,2*%
%TO.N,Net-(J3-Pad2)*%
X139573000Y-105537000D03*
D12*
%TO.P,OUT,1*%
%TO.N,GND*%
X142113000Y-105537000D03*
%TD*%
%TO.P,R1,1*%
%TO.N,+5V*%
%TA.AperFunction,SMDPad,CuDef*%
G36*
G01*
X147885999Y-95301000D02*
X148786001Y-95301000D01*
G75*
G02*
X149036000Y-95550999I0J-249999D01*
G01*
X149036000Y-96201001D01*
G75*
G02*
X148786001Y-96451000I-249999J0D01*
G01*
X147885999Y-96451000D01*
G75*
G02*
X147636000Y-96201001I0J249999D01*
G01*
X147636000Y-95550999D01*
G75*
G02*
X147885999Y-95301000I249999J0D01*
G01*
G37*
%TD.AperFunction*%
%TO.P,R1,2*%
%TO.N,Net-(IC1-Pad18)*%
%TA.AperFunction,SMDPad,CuDef*%
G36*
G01*
X147885999Y-97351000D02*
X148786001Y-97351000D01*
G75*
G02*
X149036000Y-97600999I0J-249999D01*
G01*
X149036000Y-98251001D01*
G75*
G02*
X148786001Y-98501000I-249999J0D01*
G01*
X147885999Y-98501000D01*
G75*
G02*
X147636000Y-98251001I0J249999D01*
G01*
X147636000Y-97600999D01*
G75*
G02*
X147885999Y-97351000I249999J0D01*
G01*
G37*
%TD.AperFunction*%
%TD*%
%TO.P,R2,2*%
%TO.N,GND*%
%TA.AperFunction,SMDPad,CuDef*%
G36*
G01*
X130868000Y-100514999D02*
X130868000Y-101415001D01*
G75*
G02*
X130618001Y-101665000I-249999J0D01*
G01*
X129967999Y-101665000D01*
G75*
G02*
X129718000Y-101415001I0J249999D01*
G01*
X129718000Y-100514999D01*
G75*
G02*
X129967999Y-100265000I249999J0D01*
G01*
X130618001Y-100265000D01*
G75*
G02*
X130868000Y-100514999I0J-249999D01*
G01*
G37*
%TD.AperFunction*%
%TO.P,R2,1*%
%TO.N,/TLED_IN*%
%TA.AperFunction,SMDPad,CuDef*%
G36*
G01*
X132918000Y-100514999D02*
X132918000Y-101415001D01*
G75*
G02*
X132668001Y-101665000I-249999J0D01*
G01*
X132017999Y-101665000D01*
G75*
G02*
X131768000Y-101415001I0J249999D01*
G01*
X131768000Y-100514999D01*
G75*
G02*
X132017999Y-100265000I249999J0D01*
G01*
X132668001Y-100265000D01*
G75*
G02*
X132918000Y-100514999I0J-249999D01*
G01*
G37*
%TD.AperFunction*%
%TD*%
%TO.P,R3,1*%
%TO.N,Net-(J3-Pad2)*%
%TA.AperFunction,SMDPad,CuDef*%
G36*
G01*
X141420001Y-98501000D02*
X140519999Y-98501000D01*
G75*
G02*
X140270000Y-98251001I0J249999D01*
G01*
X140270000Y-97600999D01*
G75*
G02*
X140519999Y-97351000I249999J0D01*
G01*
X141420001Y-97351000D01*
G75*
G02*
X141670000Y-97600999I0J-249999D01*
G01*
X141670000Y-98251001D01*
G75*
G02*
X141420001Y-98501000I-249999J0D01*
G01*
G37*
%TD.AperFunction*%
%TO.P,R3,2*%
%TO.N,/TLED_OUT*%
%TA.AperFunction,SMDPad,CuDef*%
G36*
G01*
X141420001Y-96451000D02*
X140519999Y-96451000D01*
G75*
G02*
X140270000Y-96201001I0J249999D01*
G01*
X140270000Y-95550999D01*
G75*
G02*
X140519999Y-95301000I249999J0D01*
G01*
X141420001Y-95301000D01*
G75*
G02*
X141670000Y-95550999I0J-249999D01*
G01*
X141670000Y-96201001D01*
G75*
G02*
X141420001Y-96451000I-249999J0D01*
G01*
G37*
%TD.AperFunction*%
%TD*%
D14*
%TO.P,U1,1*%
%TO.N,Net-(U1-Pad1)*%
X127508000Y-93345000D03*
D15*
%TO.P,U1,5*%
%TO.N,/TLED_IN*%
X135128000Y-100965000D03*
%TO.P,U1,2*%
%TO.N,/LOAD*%
X127508000Y-95885000D03*
%TO.P,U1,6*%
%TO.N,/DATA*%
X135128000Y-98425000D03*
%TO.P,U1,3*%
%TO.N,/CLOCK*%
X127508000Y-98425000D03*
%TO.P,U1,7*%
%TO.N,/TLED_OUT*%
X135128000Y-95885000D03*
%TO.P,U1,4*%
%TO.N,GND*%
X127508000Y-100965000D03*
%TO.P,U1,8*%
%TO.N,+5V*%
X135128000Y-93345000D03*
%TD*%
D16*
%TO.N,+5V*%
X144653000Y-94361000D03*
%TO.N,GND*%
X130302000Y-99314000D03*
X125095000Y-99314000D03*
X142113000Y-99949000D03*
X148463000Y-100203000D03*
%TO.N,/DIG1*%
X129413002Y-103289990D03*
%TO.N,/SEGE*%
X142113000Y-81534000D03*
%TO.N,/SEGC*%
X143383006Y-80264000D03*
%TO.N,/DIG3*%
X144780000Y-79883000D03*
X144653000Y-99949000D03*
%TO.N,/SEGB*%
X148463000Y-90551000D03*
%TO.N,/SEGA*%
X151003000Y-90551000D03*
%TO.N,/SEGF*%
X149733000Y-90551000D03*
X138557000Y-86360000D03*
%TO.N,Net-(IC1-Pad18)*%
X146558000Y-97917000D03*
%TD*%
D17*
%TO.N,+5V*%
X123054000Y-98180000D02*
X123063000Y-98171000D01*
X123054000Y-100965000D02*
X123054000Y-98180000D01*
X144653000Y-95876000D02*
X148336000Y-95876000D01*
X144653000Y-95876000D02*
X144653000Y-94361000D01*
X136144000Y-94361000D02*
X135128000Y-93345000D01*
X144653000Y-94361000D02*
X136144000Y-94361000D01*
X124460000Y-98171000D02*
X125730000Y-96901000D01*
X133477000Y-91694000D02*
X135128000Y-93345000D01*
X123063000Y-98171000D02*
X124460000Y-98171000D01*
X125730000Y-96901000D02*
X125730000Y-92329000D01*
X126365000Y-91694000D02*
X133477000Y-91694000D01*
X125730000Y-92329000D02*
X126365000Y-91694000D01*
%TO.N,/DIG1*%
X121412000Y-91694000D02*
X121412000Y-101473000D01*
X121412000Y-101473000D02*
X123228990Y-103289990D01*
X129540000Y-78105000D02*
X129540000Y-83566000D01*
X123228990Y-103289990D02*
X129413002Y-103289990D01*
X129540000Y-83566000D02*
X121412000Y-91694000D01*
%TO.N,/SEGE*%
X135509000Y-81534000D02*
X142113000Y-81534000D01*
X132080000Y-78105000D02*
X135509000Y-81534000D01*
%TO.N,/SEGC*%
X134620000Y-78105000D02*
X136779000Y-80264000D01*
X136779000Y-80264000D02*
X143383006Y-80264000D01*
%TO.N,/DIG3*%
X144653000Y-99949000D02*
X144653000Y-99949000D01*
X151892000Y-99187000D02*
X145415000Y-99187000D01*
X153416000Y-97663000D02*
X151892000Y-99187000D01*
X145415000Y-99187000D02*
X144653000Y-99949000D01*
X144780000Y-79883000D02*
X153416000Y-88519000D01*
X153416000Y-88519000D02*
X153416000Y-97663000D01*
%TO.N,/SEGB*%
X139446000Y-90551000D02*
X137160000Y-88265000D01*
X148463000Y-90551000D02*
X139446000Y-90551000D01*
%TO.N,/SEGA*%
X151003000Y-90551000D02*
X144780000Y-84328000D01*
X138557000Y-84328000D02*
X134620000Y-88265000D01*
X144780000Y-84328000D02*
X138557000Y-84328000D01*
%TO.N,/SEGF*%
X149733000Y-90551000D02*
X145542000Y-86360000D01*
X145542000Y-86360000D02*
X144653000Y-86360000D01*
X144653000Y-86360000D02*
X144653000Y-86360000D01*
X144653000Y-86360000D02*
X138557000Y-86360000D01*
X138557000Y-86360000D02*
X138557000Y-86360000D01*
%TO.N,Net-(IC1-Pad18)*%
X146567000Y-97926000D02*
X146558000Y-97917000D01*
X148336000Y-97926000D02*
X146567000Y-97926000D01*
%TO.N,/TLED_IN*%
X132343000Y-100965000D02*
X132343000Y-102752000D01*
X132715000Y-103124000D02*
X132715000Y-105537000D01*
X132343000Y-102752000D02*
X132715000Y-103124000D01*
X132343000Y-100965000D02*
X135128000Y-100965000D01*
%TO.N,Net-(J3-Pad2)*%
X139573000Y-99323000D02*
X140970000Y-97926000D01*
X139573000Y-105537000D02*
X139573000Y-99323000D01*
%TO.N,/TLED_OUT*%
X135137000Y-95876000D02*
X135128000Y-95885000D01*
X140970000Y-95876000D02*
X135137000Y-95876000D01*
%TD*%
D18*
%TO.N,GND*%
G36*
X133699983Y-93168561D02*
G01*
X133693000Y-93203665D01*
X133693000Y-93486335D01*
X133748147Y-93763574D01*
X133856320Y-94024727D01*
X134013363Y-94259759D01*
X134213241Y-94459637D01*
X134445759Y-94615000D01*
X134213241Y-94770363D01*
X134013363Y-94970241D01*
X133856320Y-95205273D01*
X133748147Y-95466426D01*
X133693000Y-95743665D01*
X133693000Y-96026335D01*
X133748147Y-96303574D01*
X133856320Y-96564727D01*
X134013363Y-96799759D01*
X134213241Y-96999637D01*
X134445759Y-97155000D01*
X134213241Y-97310363D01*
X134013363Y-97510241D01*
X133856320Y-97745273D01*
X133748147Y-98006426D01*
X133693000Y-98283665D01*
X133693000Y-98566335D01*
X133748147Y-98843574D01*
X133856320Y-99104727D01*
X134013363Y-99339759D01*
X134213241Y-99539637D01*
X134445759Y-99695000D01*
X134213241Y-99850363D01*
X134013363Y-100050241D01*
X133993479Y-100080000D01*
X133437614Y-100080000D01*
X133406405Y-100021613D01*
X133295962Y-99887038D01*
X133161387Y-99776595D01*
X133007851Y-99694528D01*
X132841255Y-99643992D01*
X132668001Y-99626928D01*
X132017999Y-99626928D01*
X131844745Y-99643992D01*
X131678149Y-99694528D01*
X131524613Y-99776595D01*
X131390038Y-99887038D01*
X131384658Y-99893594D01*
X131319185Y-99813815D01*
X131222494Y-99734463D01*
X131112180Y-99675498D01*
X130992482Y-99639188D01*
X130868000Y-99626928D01*
X130578750Y-99630000D01*
X130420000Y-99788750D01*
X130420000Y-100838000D01*
X130440000Y-100838000D01*
X130440000Y-101092000D01*
X130420000Y-101092000D01*
X130420000Y-102141250D01*
X130578750Y-102300000D01*
X130868000Y-102303072D01*
X130992482Y-102290812D01*
X131112180Y-102254502D01*
X131222494Y-102195537D01*
X131319185Y-102116185D01*
X131384658Y-102036406D01*
X131390038Y-102042962D01*
X131458001Y-102098738D01*
X131458001Y-102708521D01*
X131453719Y-102752000D01*
X131470805Y-102925490D01*
X131521412Y-103092313D01*
X131603590Y-103246059D01*
X131686468Y-103347046D01*
X131686471Y-103347049D01*
X131714184Y-103380817D01*
X131747952Y-103408530D01*
X131830000Y-103490578D01*
X131830001Y-104342343D01*
X131768368Y-104383525D01*
X131636513Y-104515380D01*
X131614502Y-104442820D01*
X131555537Y-104332506D01*
X131476185Y-104235815D01*
X131379494Y-104156463D01*
X131269180Y-104097498D01*
X131149482Y-104061188D01*
X131025000Y-104048928D01*
X130460750Y-104052000D01*
X130302000Y-104210750D01*
X130302000Y-105410000D01*
X130322000Y-105410000D01*
X130322000Y-105664000D01*
X130302000Y-105664000D01*
X130302000Y-106863250D01*
X130460750Y-107022000D01*
X131025000Y-107025072D01*
X131149482Y-107012812D01*
X131269180Y-106976502D01*
X131379494Y-106917537D01*
X131476185Y-106838185D01*
X131555537Y-106741494D01*
X131614502Y-106631180D01*
X131636513Y-106558620D01*
X131768368Y-106690475D01*
X132011589Y-106852990D01*
X132281842Y-106964932D01*
X132568740Y-107022000D01*
X132861260Y-107022000D01*
X133148158Y-106964932D01*
X133418411Y-106852990D01*
X133661632Y-106690475D01*
X133868475Y-106483632D01*
X134030990Y-106240411D01*
X134142932Y-105970158D01*
X134200000Y-105683260D01*
X134200000Y-105390740D01*
X134142932Y-105103842D01*
X134030990Y-104833589D01*
X133868475Y-104590368D01*
X133661632Y-104383525D01*
X133600000Y-104342344D01*
X133600000Y-103167465D01*
X133604281Y-103123999D01*
X133600000Y-103080533D01*
X133600000Y-103080523D01*
X133587195Y-102950510D01*
X133536589Y-102783687D01*
X133454411Y-102629941D01*
X133343817Y-102495183D01*
X133310045Y-102467467D01*
X133228000Y-102385422D01*
X133228000Y-102098737D01*
X133295962Y-102042962D01*
X133406405Y-101908387D01*
X133437614Y-101850000D01*
X133993479Y-101850000D01*
X134013363Y-101879759D01*
X134213241Y-102079637D01*
X134448273Y-102236680D01*
X134709426Y-102344853D01*
X134986665Y-102400000D01*
X135269335Y-102400000D01*
X135546574Y-102344853D01*
X135807727Y-102236680D01*
X136042759Y-102079637D01*
X136242637Y-101879759D01*
X136399680Y-101644727D01*
X136507853Y-101383574D01*
X136563000Y-101106335D01*
X136563000Y-100823665D01*
X136507853Y-100546426D01*
X136399680Y-100285273D01*
X136242637Y-100050241D01*
X136042759Y-99850363D01*
X135810241Y-99695000D01*
X136042759Y-99539637D01*
X136242637Y-99339759D01*
X136399680Y-99104727D01*
X136507853Y-98843574D01*
X136563000Y-98566335D01*
X136563000Y-98283665D01*
X136507853Y-98006426D01*
X136399680Y-97745273D01*
X136242637Y-97510241D01*
X136042759Y-97310363D01*
X135810241Y-97155000D01*
X136042759Y-96999637D01*
X136242637Y-96799759D01*
X136268535Y-96761000D01*
X139836263Y-96761000D01*
X139892038Y-96828962D01*
X139979816Y-96901000D01*
X139892038Y-96973038D01*
X139781595Y-97107613D01*
X139699528Y-97261149D01*
X139648992Y-97427745D01*
X139631928Y-97600999D01*
X139631928Y-98012494D01*
X138977951Y-98666471D01*
X138944184Y-98694183D01*
X138916471Y-98727951D01*
X138916468Y-98727954D01*
X138833590Y-98828941D01*
X138751412Y-98982687D01*
X138700805Y-99149510D01*
X138683719Y-99323000D01*
X138688001Y-99366479D01*
X138688000Y-104342344D01*
X138626368Y-104383525D01*
X138419525Y-104590368D01*
X138257010Y-104833589D01*
X138145068Y-105103842D01*
X138088000Y-105390740D01*
X138088000Y-105683260D01*
X138145068Y-105970158D01*
X138257010Y-106240411D01*
X138419525Y-106483632D01*
X138626368Y-106690475D01*
X138869589Y-106852990D01*
X139139842Y-106964932D01*
X139426740Y-107022000D01*
X139719260Y-107022000D01*
X140006158Y-106964932D01*
X140276411Y-106852990D01*
X140519632Y-106690475D01*
X140651487Y-106558620D01*
X140673498Y-106631180D01*
X140732463Y-106741494D01*
X140811815Y-106838185D01*
X140908506Y-106917537D01*
X141018820Y-106976502D01*
X141138518Y-107012812D01*
X141263000Y-107025072D01*
X141827250Y-107022000D01*
X141986000Y-106863250D01*
X141986000Y-105664000D01*
X142240000Y-105664000D01*
X142240000Y-106863250D01*
X142398750Y-107022000D01*
X142963000Y-107025072D01*
X143087482Y-107012812D01*
X143207180Y-106976502D01*
X143317494Y-106917537D01*
X143414185Y-106838185D01*
X143493537Y-106741494D01*
X143552502Y-106631180D01*
X143588812Y-106511482D01*
X143601072Y-106387000D01*
X143598000Y-105822750D01*
X143439250Y-105664000D01*
X142240000Y-105664000D01*
X141986000Y-105664000D01*
X141966000Y-105664000D01*
X141966000Y-105410000D01*
X141986000Y-105410000D01*
X141986000Y-104210750D01*
X142240000Y-104210750D01*
X142240000Y-105410000D01*
X143439250Y-105410000D01*
X143598000Y-105251250D01*
X143601072Y-104687000D01*
X143588812Y-104562518D01*
X143552502Y-104442820D01*
X143493537Y-104332506D01*
X143414185Y-104235815D01*
X143317494Y-104156463D01*
X143207180Y-104097498D01*
X143087482Y-104061188D01*
X142963000Y-104048928D01*
X142398750Y-104052000D01*
X142240000Y-104210750D01*
X141986000Y-104210750D01*
X141827250Y-104052000D01*
X141263000Y-104048928D01*
X141138518Y-104061188D01*
X141018820Y-104097498D01*
X140908506Y-104156463D01*
X140811815Y-104235815D01*
X140732463Y-104332506D01*
X140673498Y-104442820D01*
X140651487Y-104515380D01*
X140519632Y-104383525D01*
X140458000Y-104342344D01*
X140458000Y-99689578D01*
X141008507Y-99139072D01*
X141420001Y-99139072D01*
X141593255Y-99122008D01*
X141759851Y-99071472D01*
X141913387Y-98989405D01*
X142047962Y-98878962D01*
X142158405Y-98744387D01*
X142240472Y-98590851D01*
X142291008Y-98424255D01*
X142308072Y-98251001D01*
X142308072Y-97600999D01*
X142291008Y-97427745D01*
X142240472Y-97261149D01*
X142158405Y-97107613D01*
X142047962Y-96973038D01*
X141960184Y-96901000D01*
X142047962Y-96828962D01*
X142158405Y-96694387D01*
X142240472Y-96540851D01*
X142291008Y-96374255D01*
X142308072Y-96201001D01*
X142308072Y-95550999D01*
X142291008Y-95377745D01*
X142251044Y-95246000D01*
X143371956Y-95246000D01*
X143331992Y-95377745D01*
X143314928Y-95550999D01*
X143314928Y-96201001D01*
X143331992Y-96374255D01*
X143382528Y-96540851D01*
X143464595Y-96694387D01*
X143575038Y-96828962D01*
X143581594Y-96834342D01*
X143501815Y-96899815D01*
X143422463Y-96996506D01*
X143363498Y-97106820D01*
X143327188Y-97226518D01*
X143314928Y-97351000D01*
X143318000Y-97640250D01*
X143476750Y-97799000D01*
X144526000Y-97799000D01*
X144526000Y-97779000D01*
X144780000Y-97779000D01*
X144780000Y-97799000D01*
X144800000Y-97799000D01*
X144800000Y-98053000D01*
X144780000Y-98053000D01*
X144780000Y-98073000D01*
X144526000Y-98073000D01*
X144526000Y-98053000D01*
X143476750Y-98053000D01*
X143318000Y-98211750D01*
X143314928Y-98501000D01*
X143327188Y-98625482D01*
X143363498Y-98745180D01*
X143422463Y-98855494D01*
X143501815Y-98952185D01*
X143598506Y-99031537D01*
X143708820Y-99090502D01*
X143828518Y-99126812D01*
X143953000Y-99139072D01*
X144002744Y-99138703D01*
X143993226Y-99145063D01*
X143849063Y-99289226D01*
X143735795Y-99458744D01*
X143657774Y-99647102D01*
X143618000Y-99847061D01*
X143618000Y-100050939D01*
X143657774Y-100250898D01*
X143735795Y-100439256D01*
X143849063Y-100608774D01*
X143993226Y-100752937D01*
X144162744Y-100866205D01*
X144351102Y-100944226D01*
X144551061Y-100984000D01*
X144754939Y-100984000D01*
X144954898Y-100944226D01*
X145143256Y-100866205D01*
X145312774Y-100752937D01*
X145456937Y-100608774D01*
X145570205Y-100439256D01*
X145648226Y-100250898D01*
X145659535Y-100194044D01*
X145781579Y-100072000D01*
X151848531Y-100072000D01*
X151892000Y-100076281D01*
X151935469Y-100072000D01*
X151935477Y-100072000D01*
X152065490Y-100059195D01*
X152232313Y-100008589D01*
X152386059Y-99926411D01*
X152520817Y-99815817D01*
X152548534Y-99782044D01*
X153645000Y-98685578D01*
X153645000Y-107671000D01*
X120675000Y-107671000D01*
X120675000Y-106387000D01*
X128686928Y-106387000D01*
X128699188Y-106511482D01*
X128735498Y-106631180D01*
X128794463Y-106741494D01*
X128873815Y-106838185D01*
X128970506Y-106917537D01*
X129080820Y-106976502D01*
X129200518Y-107012812D01*
X129325000Y-107025072D01*
X129889250Y-107022000D01*
X130048000Y-106863250D01*
X130048000Y-105664000D01*
X128848750Y-105664000D01*
X128690000Y-105822750D01*
X128686928Y-106387000D01*
X120675000Y-106387000D01*
X120675000Y-101969996D01*
X120755468Y-102068046D01*
X120755471Y-102068049D01*
X120783184Y-102101817D01*
X120816951Y-102129529D01*
X122572460Y-103885039D01*
X122600173Y-103918807D01*
X122633941Y-103946520D01*
X122633943Y-103946522D01*
X122715289Y-104013281D01*
X122734931Y-104029401D01*
X122888677Y-104111579D01*
X123055500Y-104162185D01*
X123185513Y-104174990D01*
X123185521Y-104174990D01*
X123228990Y-104179271D01*
X123272459Y-104174990D01*
X128874548Y-104174990D01*
X128914997Y-104202018D01*
X128873815Y-104235815D01*
X128794463Y-104332506D01*
X128735498Y-104442820D01*
X128699188Y-104562518D01*
X128686928Y-104687000D01*
X128690000Y-105251250D01*
X128848750Y-105410000D01*
X130048000Y-105410000D01*
X130048000Y-104210750D01*
X129987894Y-104150644D01*
X130072776Y-104093927D01*
X130216939Y-103949764D01*
X130330207Y-103780246D01*
X130408228Y-103591888D01*
X130448002Y-103391929D01*
X130448002Y-103188051D01*
X130408228Y-102988092D01*
X130330207Y-102799734D01*
X130216939Y-102630216D01*
X130072776Y-102486053D01*
X129903258Y-102372785D01*
X129734533Y-102302896D01*
X130007250Y-102300000D01*
X130166000Y-102141250D01*
X130166000Y-101092000D01*
X129241750Y-101092000D01*
X129083000Y-101250750D01*
X129079928Y-101665000D01*
X129092188Y-101789482D01*
X129128498Y-101909180D01*
X129187463Y-102019494D01*
X129266815Y-102116185D01*
X129363506Y-102195537D01*
X129473820Y-102254502D01*
X129475429Y-102254990D01*
X129311063Y-102254990D01*
X129111104Y-102294764D01*
X128922746Y-102372785D01*
X128874548Y-102404990D01*
X123595569Y-102404990D01*
X123483371Y-102292792D01*
X123552255Y-102286008D01*
X123718851Y-102235472D01*
X123872387Y-102153405D01*
X124006962Y-102042962D01*
X124012342Y-102036406D01*
X124077815Y-102116185D01*
X124174506Y-102195537D01*
X124284820Y-102254502D01*
X124404518Y-102290812D01*
X124529000Y-102303072D01*
X124818250Y-102300000D01*
X124977000Y-102141250D01*
X124977000Y-101092000D01*
X125231000Y-101092000D01*
X125231000Y-102141250D01*
X125389750Y-102300000D01*
X125679000Y-102303072D01*
X125803482Y-102290812D01*
X125923180Y-102254502D01*
X126033494Y-102195537D01*
X126130185Y-102116185D01*
X126209537Y-102019494D01*
X126268502Y-101909180D01*
X126304812Y-101789482D01*
X126309115Y-101745795D01*
X126444481Y-101928414D01*
X126652869Y-102117385D01*
X126894119Y-102262070D01*
X127158960Y-102356909D01*
X127381000Y-102235624D01*
X127381000Y-101092000D01*
X127635000Y-101092000D01*
X127635000Y-102235624D01*
X127857040Y-102356909D01*
X128121881Y-102262070D01*
X128363131Y-102117385D01*
X128571519Y-101928414D01*
X128739037Y-101702420D01*
X128859246Y-101448087D01*
X128899904Y-101314039D01*
X128777915Y-101092000D01*
X127635000Y-101092000D01*
X127381000Y-101092000D01*
X126238085Y-101092000D01*
X126208713Y-101145463D01*
X126155250Y-101092000D01*
X125231000Y-101092000D01*
X124977000Y-101092000D01*
X124957000Y-101092000D01*
X124957000Y-100838000D01*
X124977000Y-100838000D01*
X124977000Y-99788750D01*
X124818250Y-99630000D01*
X124529000Y-99626928D01*
X124404518Y-99639188D01*
X124284820Y-99675498D01*
X124174506Y-99734463D01*
X124077815Y-99813815D01*
X124012342Y-99893594D01*
X124006962Y-99887038D01*
X123939000Y-99831263D01*
X123939000Y-99371670D01*
X124009632Y-99324475D01*
X124216475Y-99117632D01*
X124257656Y-99056000D01*
X124416531Y-99056000D01*
X124460000Y-99060281D01*
X124503469Y-99056000D01*
X124503477Y-99056000D01*
X124633490Y-99043195D01*
X124800313Y-98992589D01*
X124954059Y-98910411D01*
X125088817Y-98799817D01*
X125116534Y-98766044D01*
X126325050Y-97557529D01*
X126358817Y-97529817D01*
X126439143Y-97431941D01*
X126469410Y-97395060D01*
X126469411Y-97395059D01*
X126551589Y-97241313D01*
X126602195Y-97074490D01*
X126608559Y-97009872D01*
X126825759Y-97155000D01*
X126593241Y-97310363D01*
X126393363Y-97510241D01*
X126236320Y-97745273D01*
X126128147Y-98006426D01*
X126073000Y-98283665D01*
X126073000Y-98566335D01*
X126128147Y-98843574D01*
X126236320Y-99104727D01*
X126393363Y-99339759D01*
X126593241Y-99539637D01*
X126828273Y-99696680D01*
X126838865Y-99701067D01*
X126652869Y-99812615D01*
X126444481Y-100001586D01*
X126309115Y-100184205D01*
X126304812Y-100140518D01*
X126268502Y-100020820D01*
X126209537Y-99910506D01*
X126130185Y-99813815D01*
X126033494Y-99734463D01*
X125923180Y-99675498D01*
X125803482Y-99639188D01*
X125679000Y-99626928D01*
X125389750Y-99630000D01*
X125231000Y-99788750D01*
X125231000Y-100838000D01*
X126155250Y-100838000D01*
X126208713Y-100784537D01*
X126238085Y-100838000D01*
X127381000Y-100838000D01*
X127381000Y-100818000D01*
X127635000Y-100818000D01*
X127635000Y-100838000D01*
X128777915Y-100838000D01*
X128899904Y-100615961D01*
X128859246Y-100481913D01*
X128756724Y-100265000D01*
X129079928Y-100265000D01*
X129083000Y-100679250D01*
X129241750Y-100838000D01*
X130166000Y-100838000D01*
X130166000Y-99788750D01*
X130007250Y-99630000D01*
X129718000Y-99626928D01*
X129593518Y-99639188D01*
X129473820Y-99675498D01*
X129363506Y-99734463D01*
X129266815Y-99813815D01*
X129187463Y-99910506D01*
X129128498Y-100020820D01*
X129092188Y-100140518D01*
X129079928Y-100265000D01*
X128756724Y-100265000D01*
X128739037Y-100227580D01*
X128571519Y-100001586D01*
X128363131Y-99812615D01*
X128177135Y-99701067D01*
X128187727Y-99696680D01*
X128422759Y-99539637D01*
X128622637Y-99339759D01*
X128779680Y-99104727D01*
X128887853Y-98843574D01*
X128943000Y-98566335D01*
X128943000Y-98283665D01*
X128887853Y-98006426D01*
X128779680Y-97745273D01*
X128622637Y-97510241D01*
X128422759Y-97310363D01*
X128190241Y-97155000D01*
X128422759Y-96999637D01*
X128622637Y-96799759D01*
X128779680Y-96564727D01*
X128887853Y-96303574D01*
X128943000Y-96026335D01*
X128943000Y-95743665D01*
X128887853Y-95466426D01*
X128779680Y-95205273D01*
X128622637Y-94970241D01*
X128424039Y-94771643D01*
X128432482Y-94770812D01*
X128552180Y-94734502D01*
X128662494Y-94675537D01*
X128759185Y-94596185D01*
X128838537Y-94499494D01*
X128897502Y-94389180D01*
X128933812Y-94269482D01*
X128946072Y-94145000D01*
X128946072Y-92579000D01*
X133110422Y-92579000D01*
X133699983Y-93168561D01*
G37*
X133699983Y-93168561D02*
X133693000Y-93203665D01*
X133693000Y-93486335D01*
X133748147Y-93763574D01*
X133856320Y-94024727D01*
X134013363Y-94259759D01*
X134213241Y-94459637D01*
X134445759Y-94615000D01*
X134213241Y-94770363D01*
X134013363Y-94970241D01*
X133856320Y-95205273D01*
X133748147Y-95466426D01*
X133693000Y-95743665D01*
X133693000Y-96026335D01*
X133748147Y-96303574D01*
X133856320Y-96564727D01*
X134013363Y-96799759D01*
X134213241Y-96999637D01*
X134445759Y-97155000D01*
X134213241Y-97310363D01*
X134013363Y-97510241D01*
X133856320Y-97745273D01*
X133748147Y-98006426D01*
X133693000Y-98283665D01*
X133693000Y-98566335D01*
X133748147Y-98843574D01*
X133856320Y-99104727D01*
X134013363Y-99339759D01*
X134213241Y-99539637D01*
X134445759Y-99695000D01*
X134213241Y-99850363D01*
X134013363Y-100050241D01*
X133993479Y-100080000D01*
X133437614Y-100080000D01*
X133406405Y-100021613D01*
X133295962Y-99887038D01*
X133161387Y-99776595D01*
X133007851Y-99694528D01*
X132841255Y-99643992D01*
X132668001Y-99626928D01*
X132017999Y-99626928D01*
X131844745Y-99643992D01*
X131678149Y-99694528D01*
X131524613Y-99776595D01*
X131390038Y-99887038D01*
X131384658Y-99893594D01*
X131319185Y-99813815D01*
X131222494Y-99734463D01*
X131112180Y-99675498D01*
X130992482Y-99639188D01*
X130868000Y-99626928D01*
X130578750Y-99630000D01*
X130420000Y-99788750D01*
X130420000Y-100838000D01*
X130440000Y-100838000D01*
X130440000Y-101092000D01*
X130420000Y-101092000D01*
X130420000Y-102141250D01*
X130578750Y-102300000D01*
X130868000Y-102303072D01*
X130992482Y-102290812D01*
X131112180Y-102254502D01*
X131222494Y-102195537D01*
X131319185Y-102116185D01*
X131384658Y-102036406D01*
X131390038Y-102042962D01*
X131458001Y-102098738D01*
X131458001Y-102708521D01*
X131453719Y-102752000D01*
X131470805Y-102925490D01*
X131521412Y-103092313D01*
X131603590Y-103246059D01*
X131686468Y-103347046D01*
X131686471Y-103347049D01*
X131714184Y-103380817D01*
X131747952Y-103408530D01*
X131830000Y-103490578D01*
X131830001Y-104342343D01*
X131768368Y-104383525D01*
X131636513Y-104515380D01*
X131614502Y-104442820D01*
X131555537Y-104332506D01*
X131476185Y-104235815D01*
X131379494Y-104156463D01*
X131269180Y-104097498D01*
X131149482Y-104061188D01*
X131025000Y-104048928D01*
X130460750Y-104052000D01*
X130302000Y-104210750D01*
X130302000Y-105410000D01*
X130322000Y-105410000D01*
X130322000Y-105664000D01*
X130302000Y-105664000D01*
X130302000Y-106863250D01*
X130460750Y-107022000D01*
X131025000Y-107025072D01*
X131149482Y-107012812D01*
X131269180Y-106976502D01*
X131379494Y-106917537D01*
X131476185Y-106838185D01*
X131555537Y-106741494D01*
X131614502Y-106631180D01*
X131636513Y-106558620D01*
X131768368Y-106690475D01*
X132011589Y-106852990D01*
X132281842Y-106964932D01*
X132568740Y-107022000D01*
X132861260Y-107022000D01*
X133148158Y-106964932D01*
X133418411Y-106852990D01*
X133661632Y-106690475D01*
X133868475Y-106483632D01*
X134030990Y-106240411D01*
X134142932Y-105970158D01*
X134200000Y-105683260D01*
X134200000Y-105390740D01*
X134142932Y-105103842D01*
X134030990Y-104833589D01*
X133868475Y-104590368D01*
X133661632Y-104383525D01*
X133600000Y-104342344D01*
X133600000Y-103167465D01*
X133604281Y-103123999D01*
X133600000Y-103080533D01*
X133600000Y-103080523D01*
X133587195Y-102950510D01*
X133536589Y-102783687D01*
X133454411Y-102629941D01*
X133343817Y-102495183D01*
X133310045Y-102467467D01*
X133228000Y-102385422D01*
X133228000Y-102098737D01*
X133295962Y-102042962D01*
X133406405Y-101908387D01*
X133437614Y-101850000D01*
X133993479Y-101850000D01*
X134013363Y-101879759D01*
X134213241Y-102079637D01*
X134448273Y-102236680D01*
X134709426Y-102344853D01*
X134986665Y-102400000D01*
X135269335Y-102400000D01*
X135546574Y-102344853D01*
X135807727Y-102236680D01*
X136042759Y-102079637D01*
X136242637Y-101879759D01*
X136399680Y-101644727D01*
X136507853Y-101383574D01*
X136563000Y-101106335D01*
X136563000Y-100823665D01*
X136507853Y-100546426D01*
X136399680Y-100285273D01*
X136242637Y-100050241D01*
X136042759Y-99850363D01*
X135810241Y-99695000D01*
X136042759Y-99539637D01*
X136242637Y-99339759D01*
X136399680Y-99104727D01*
X136507853Y-98843574D01*
X136563000Y-98566335D01*
X136563000Y-98283665D01*
X136507853Y-98006426D01*
X136399680Y-97745273D01*
X136242637Y-97510241D01*
X136042759Y-97310363D01*
X135810241Y-97155000D01*
X136042759Y-96999637D01*
X136242637Y-96799759D01*
X136268535Y-96761000D01*
X139836263Y-96761000D01*
X139892038Y-96828962D01*
X139979816Y-96901000D01*
X139892038Y-96973038D01*
X139781595Y-97107613D01*
X139699528Y-97261149D01*
X139648992Y-97427745D01*
X139631928Y-97600999D01*
X139631928Y-98012494D01*
X138977951Y-98666471D01*
X138944184Y-98694183D01*
X138916471Y-98727951D01*
X138916468Y-98727954D01*
X138833590Y-98828941D01*
X138751412Y-98982687D01*
X138700805Y-99149510D01*
X138683719Y-99323000D01*
X138688001Y-99366479D01*
X138688000Y-104342344D01*
X138626368Y-104383525D01*
X138419525Y-104590368D01*
X138257010Y-104833589D01*
X138145068Y-105103842D01*
X138088000Y-105390740D01*
X138088000Y-105683260D01*
X138145068Y-105970158D01*
X138257010Y-106240411D01*
X138419525Y-106483632D01*
X138626368Y-106690475D01*
X138869589Y-106852990D01*
X139139842Y-106964932D01*
X139426740Y-107022000D01*
X139719260Y-107022000D01*
X140006158Y-106964932D01*
X140276411Y-106852990D01*
X140519632Y-106690475D01*
X140651487Y-106558620D01*
X140673498Y-106631180D01*
X140732463Y-106741494D01*
X140811815Y-106838185D01*
X140908506Y-106917537D01*
X141018820Y-106976502D01*
X141138518Y-107012812D01*
X141263000Y-107025072D01*
X141827250Y-107022000D01*
X141986000Y-106863250D01*
X141986000Y-105664000D01*
X142240000Y-105664000D01*
X142240000Y-106863250D01*
X142398750Y-107022000D01*
X142963000Y-107025072D01*
X143087482Y-107012812D01*
X143207180Y-106976502D01*
X143317494Y-106917537D01*
X143414185Y-106838185D01*
X143493537Y-106741494D01*
X143552502Y-106631180D01*
X143588812Y-106511482D01*
X143601072Y-106387000D01*
X143598000Y-105822750D01*
X143439250Y-105664000D01*
X142240000Y-105664000D01*
X141986000Y-105664000D01*
X141966000Y-105664000D01*
X141966000Y-105410000D01*
X141986000Y-105410000D01*
X141986000Y-104210750D01*
X142240000Y-104210750D01*
X142240000Y-105410000D01*
X143439250Y-105410000D01*
X143598000Y-105251250D01*
X143601072Y-104687000D01*
X143588812Y-104562518D01*
X143552502Y-104442820D01*
X143493537Y-104332506D01*
X143414185Y-104235815D01*
X143317494Y-104156463D01*
X143207180Y-104097498D01*
X143087482Y-104061188D01*
X142963000Y-104048928D01*
X142398750Y-104052000D01*
X142240000Y-104210750D01*
X141986000Y-104210750D01*
X141827250Y-104052000D01*
X141263000Y-104048928D01*
X141138518Y-104061188D01*
X141018820Y-104097498D01*
X140908506Y-104156463D01*
X140811815Y-104235815D01*
X140732463Y-104332506D01*
X140673498Y-104442820D01*
X140651487Y-104515380D01*
X140519632Y-104383525D01*
X140458000Y-104342344D01*
X140458000Y-99689578D01*
X141008507Y-99139072D01*
X141420001Y-99139072D01*
X141593255Y-99122008D01*
X141759851Y-99071472D01*
X141913387Y-98989405D01*
X142047962Y-98878962D01*
X142158405Y-98744387D01*
X142240472Y-98590851D01*
X142291008Y-98424255D01*
X142308072Y-98251001D01*
X142308072Y-97600999D01*
X142291008Y-97427745D01*
X142240472Y-97261149D01*
X142158405Y-97107613D01*
X142047962Y-96973038D01*
X141960184Y-96901000D01*
X142047962Y-96828962D01*
X142158405Y-96694387D01*
X142240472Y-96540851D01*
X142291008Y-96374255D01*
X142308072Y-96201001D01*
X142308072Y-95550999D01*
X142291008Y-95377745D01*
X142251044Y-95246000D01*
X143371956Y-95246000D01*
X143331992Y-95377745D01*
X143314928Y-95550999D01*
X143314928Y-96201001D01*
X143331992Y-96374255D01*
X143382528Y-96540851D01*
X143464595Y-96694387D01*
X143575038Y-96828962D01*
X143581594Y-96834342D01*
X143501815Y-96899815D01*
X143422463Y-96996506D01*
X143363498Y-97106820D01*
X143327188Y-97226518D01*
X143314928Y-97351000D01*
X143318000Y-97640250D01*
X143476750Y-97799000D01*
X144526000Y-97799000D01*
X144526000Y-97779000D01*
X144780000Y-97779000D01*
X144780000Y-97799000D01*
X144800000Y-97799000D01*
X144800000Y-98053000D01*
X144780000Y-98053000D01*
X144780000Y-98073000D01*
X144526000Y-98073000D01*
X144526000Y-98053000D01*
X143476750Y-98053000D01*
X143318000Y-98211750D01*
X143314928Y-98501000D01*
X143327188Y-98625482D01*
X143363498Y-98745180D01*
X143422463Y-98855494D01*
X143501815Y-98952185D01*
X143598506Y-99031537D01*
X143708820Y-99090502D01*
X143828518Y-99126812D01*
X143953000Y-99139072D01*
X144002744Y-99138703D01*
X143993226Y-99145063D01*
X143849063Y-99289226D01*
X143735795Y-99458744D01*
X143657774Y-99647102D01*
X143618000Y-99847061D01*
X143618000Y-100050939D01*
X143657774Y-100250898D01*
X143735795Y-100439256D01*
X143849063Y-100608774D01*
X143993226Y-100752937D01*
X144162744Y-100866205D01*
X144351102Y-100944226D01*
X144551061Y-100984000D01*
X144754939Y-100984000D01*
X144954898Y-100944226D01*
X145143256Y-100866205D01*
X145312774Y-100752937D01*
X145456937Y-100608774D01*
X145570205Y-100439256D01*
X145648226Y-100250898D01*
X145659535Y-100194044D01*
X145781579Y-100072000D01*
X151848531Y-100072000D01*
X151892000Y-100076281D01*
X151935469Y-100072000D01*
X151935477Y-100072000D01*
X152065490Y-100059195D01*
X152232313Y-100008589D01*
X152386059Y-99926411D01*
X152520817Y-99815817D01*
X152548534Y-99782044D01*
X153645000Y-98685578D01*
X153645000Y-107671000D01*
X120675000Y-107671000D01*
X120675000Y-106387000D01*
X128686928Y-106387000D01*
X128699188Y-106511482D01*
X128735498Y-106631180D01*
X128794463Y-106741494D01*
X128873815Y-106838185D01*
X128970506Y-106917537D01*
X129080820Y-106976502D01*
X129200518Y-107012812D01*
X129325000Y-107025072D01*
X129889250Y-107022000D01*
X130048000Y-106863250D01*
X130048000Y-105664000D01*
X128848750Y-105664000D01*
X128690000Y-105822750D01*
X128686928Y-106387000D01*
X120675000Y-106387000D01*
X120675000Y-101969996D01*
X120755468Y-102068046D01*
X120755471Y-102068049D01*
X120783184Y-102101817D01*
X120816951Y-102129529D01*
X122572460Y-103885039D01*
X122600173Y-103918807D01*
X122633941Y-103946520D01*
X122633943Y-103946522D01*
X122715289Y-104013281D01*
X122734931Y-104029401D01*
X122888677Y-104111579D01*
X123055500Y-104162185D01*
X123185513Y-104174990D01*
X123185521Y-104174990D01*
X123228990Y-104179271D01*
X123272459Y-104174990D01*
X128874548Y-104174990D01*
X128914997Y-104202018D01*
X128873815Y-104235815D01*
X128794463Y-104332506D01*
X128735498Y-104442820D01*
X128699188Y-104562518D01*
X128686928Y-104687000D01*
X128690000Y-105251250D01*
X128848750Y-105410000D01*
X130048000Y-105410000D01*
X130048000Y-104210750D01*
X129987894Y-104150644D01*
X130072776Y-104093927D01*
X130216939Y-103949764D01*
X130330207Y-103780246D01*
X130408228Y-103591888D01*
X130448002Y-103391929D01*
X130448002Y-103188051D01*
X130408228Y-102988092D01*
X130330207Y-102799734D01*
X130216939Y-102630216D01*
X130072776Y-102486053D01*
X129903258Y-102372785D01*
X129734533Y-102302896D01*
X130007250Y-102300000D01*
X130166000Y-102141250D01*
X130166000Y-101092000D01*
X129241750Y-101092000D01*
X129083000Y-101250750D01*
X129079928Y-101665000D01*
X129092188Y-101789482D01*
X129128498Y-101909180D01*
X129187463Y-102019494D01*
X129266815Y-102116185D01*
X129363506Y-102195537D01*
X129473820Y-102254502D01*
X129475429Y-102254990D01*
X129311063Y-102254990D01*
X129111104Y-102294764D01*
X128922746Y-102372785D01*
X128874548Y-102404990D01*
X123595569Y-102404990D01*
X123483371Y-102292792D01*
X123552255Y-102286008D01*
X123718851Y-102235472D01*
X123872387Y-102153405D01*
X124006962Y-102042962D01*
X124012342Y-102036406D01*
X124077815Y-102116185D01*
X124174506Y-102195537D01*
X124284820Y-102254502D01*
X124404518Y-102290812D01*
X124529000Y-102303072D01*
X124818250Y-102300000D01*
X124977000Y-102141250D01*
X124977000Y-101092000D01*
X125231000Y-101092000D01*
X125231000Y-102141250D01*
X125389750Y-102300000D01*
X125679000Y-102303072D01*
X125803482Y-102290812D01*
X125923180Y-102254502D01*
X126033494Y-102195537D01*
X126130185Y-102116185D01*
X126209537Y-102019494D01*
X126268502Y-101909180D01*
X126304812Y-101789482D01*
X126309115Y-101745795D01*
X126444481Y-101928414D01*
X126652869Y-102117385D01*
X126894119Y-102262070D01*
X127158960Y-102356909D01*
X127381000Y-102235624D01*
X127381000Y-101092000D01*
X127635000Y-101092000D01*
X127635000Y-102235624D01*
X127857040Y-102356909D01*
X128121881Y-102262070D01*
X128363131Y-102117385D01*
X128571519Y-101928414D01*
X128739037Y-101702420D01*
X128859246Y-101448087D01*
X128899904Y-101314039D01*
X128777915Y-101092000D01*
X127635000Y-101092000D01*
X127381000Y-101092000D01*
X126238085Y-101092000D01*
X126208713Y-101145463D01*
X126155250Y-101092000D01*
X125231000Y-101092000D01*
X124977000Y-101092000D01*
X124957000Y-101092000D01*
X124957000Y-100838000D01*
X124977000Y-100838000D01*
X124977000Y-99788750D01*
X124818250Y-99630000D01*
X124529000Y-99626928D01*
X124404518Y-99639188D01*
X124284820Y-99675498D01*
X124174506Y-99734463D01*
X124077815Y-99813815D01*
X124012342Y-99893594D01*
X124006962Y-99887038D01*
X123939000Y-99831263D01*
X123939000Y-99371670D01*
X124009632Y-99324475D01*
X124216475Y-99117632D01*
X124257656Y-99056000D01*
X124416531Y-99056000D01*
X124460000Y-99060281D01*
X124503469Y-99056000D01*
X124503477Y-99056000D01*
X124633490Y-99043195D01*
X124800313Y-98992589D01*
X124954059Y-98910411D01*
X125088817Y-98799817D01*
X125116534Y-98766044D01*
X126325050Y-97557529D01*
X126358817Y-97529817D01*
X126439143Y-97431941D01*
X126469410Y-97395060D01*
X126469411Y-97395059D01*
X126551589Y-97241313D01*
X126602195Y-97074490D01*
X126608559Y-97009872D01*
X126825759Y-97155000D01*
X126593241Y-97310363D01*
X126393363Y-97510241D01*
X126236320Y-97745273D01*
X126128147Y-98006426D01*
X126073000Y-98283665D01*
X126073000Y-98566335D01*
X126128147Y-98843574D01*
X126236320Y-99104727D01*
X126393363Y-99339759D01*
X126593241Y-99539637D01*
X126828273Y-99696680D01*
X126838865Y-99701067D01*
X126652869Y-99812615D01*
X126444481Y-100001586D01*
X126309115Y-100184205D01*
X126304812Y-100140518D01*
X126268502Y-100020820D01*
X126209537Y-99910506D01*
X126130185Y-99813815D01*
X126033494Y-99734463D01*
X125923180Y-99675498D01*
X125803482Y-99639188D01*
X125679000Y-99626928D01*
X125389750Y-99630000D01*
X125231000Y-99788750D01*
X125231000Y-100838000D01*
X126155250Y-100838000D01*
X126208713Y-100784537D01*
X126238085Y-100838000D01*
X127381000Y-100838000D01*
X127381000Y-100818000D01*
X127635000Y-100818000D01*
X127635000Y-100838000D01*
X128777915Y-100838000D01*
X128899904Y-100615961D01*
X128859246Y-100481913D01*
X128756724Y-100265000D01*
X129079928Y-100265000D01*
X129083000Y-100679250D01*
X129241750Y-100838000D01*
X130166000Y-100838000D01*
X130166000Y-99788750D01*
X130007250Y-99630000D01*
X129718000Y-99626928D01*
X129593518Y-99639188D01*
X129473820Y-99675498D01*
X129363506Y-99734463D01*
X129266815Y-99813815D01*
X129187463Y-99910506D01*
X129128498Y-100020820D01*
X129092188Y-100140518D01*
X129079928Y-100265000D01*
X128756724Y-100265000D01*
X128739037Y-100227580D01*
X128571519Y-100001586D01*
X128363131Y-99812615D01*
X128177135Y-99701067D01*
X128187727Y-99696680D01*
X128422759Y-99539637D01*
X128622637Y-99339759D01*
X128779680Y-99104727D01*
X128887853Y-98843574D01*
X128943000Y-98566335D01*
X128943000Y-98283665D01*
X128887853Y-98006426D01*
X128779680Y-97745273D01*
X128622637Y-97510241D01*
X128422759Y-97310363D01*
X128190241Y-97155000D01*
X128422759Y-96999637D01*
X128622637Y-96799759D01*
X128779680Y-96564727D01*
X128887853Y-96303574D01*
X128943000Y-96026335D01*
X128943000Y-95743665D01*
X128887853Y-95466426D01*
X128779680Y-95205273D01*
X128622637Y-94970241D01*
X128424039Y-94771643D01*
X128432482Y-94770812D01*
X128552180Y-94734502D01*
X128662494Y-94675537D01*
X128759185Y-94596185D01*
X128838537Y-94499494D01*
X128897502Y-94389180D01*
X128933812Y-94269482D01*
X128946072Y-94145000D01*
X128946072Y-92579000D01*
X133110422Y-92579000D01*
X133699983Y-93168561D01*
G36*
X130912446Y-78729070D02*
G01*
X131056631Y-78944857D01*
X131240143Y-79128369D01*
X131455930Y-79272554D01*
X131695699Y-79371869D01*
X131950238Y-79422500D01*
X132145922Y-79422500D01*
X134852470Y-82129049D01*
X134880183Y-82162817D01*
X134913951Y-82190530D01*
X134913953Y-82190532D01*
X134974840Y-82240501D01*
X135014941Y-82273411D01*
X135168687Y-82355589D01*
X135335510Y-82406195D01*
X135465523Y-82419000D01*
X135465533Y-82419000D01*
X135508999Y-82423281D01*
X135552465Y-82419000D01*
X141574546Y-82419000D01*
X141622744Y-82451205D01*
X141811102Y-82529226D01*
X142011061Y-82569000D01*
X142214939Y-82569000D01*
X142414898Y-82529226D01*
X142603256Y-82451205D01*
X142772774Y-82337937D01*
X142916937Y-82193774D01*
X143030205Y-82024256D01*
X143108226Y-81835898D01*
X143148000Y-81635939D01*
X143148000Y-81432061D01*
X143114961Y-81265960D01*
X143281067Y-81299000D01*
X143484945Y-81299000D01*
X143684904Y-81259226D01*
X143873262Y-81181205D01*
X144042780Y-81067937D01*
X144186943Y-80923774D01*
X144275755Y-80790858D01*
X144289744Y-80800205D01*
X144478102Y-80878226D01*
X144534957Y-80889535D01*
X152531000Y-88885579D01*
X152531001Y-97296420D01*
X151525422Y-98302000D01*
X149669049Y-98302000D01*
X149674072Y-98251001D01*
X149674072Y-97600999D01*
X149657008Y-97427745D01*
X149606472Y-97261149D01*
X149524405Y-97107613D01*
X149413962Y-96973038D01*
X149326184Y-96901000D01*
X149413962Y-96828962D01*
X149524405Y-96694387D01*
X149606472Y-96540851D01*
X149657008Y-96374255D01*
X149674072Y-96201001D01*
X149674072Y-95550999D01*
X149657008Y-95377745D01*
X149606472Y-95211149D01*
X149524405Y-95057613D01*
X149413962Y-94923038D01*
X149279387Y-94812595D01*
X149125851Y-94730528D01*
X148959255Y-94679992D01*
X148786001Y-94662928D01*
X147885999Y-94662928D01*
X147712745Y-94679992D01*
X147546149Y-94730528D01*
X147392613Y-94812595D01*
X147258038Y-94923038D01*
X147202263Y-94991000D01*
X145786737Y-94991000D01*
X145730962Y-94923038D01*
X145596387Y-94812595D01*
X145588062Y-94808145D01*
X145648226Y-94662898D01*
X145688000Y-94462939D01*
X145688000Y-94259061D01*
X145648226Y-94059102D01*
X145570205Y-93870744D01*
X145456937Y-93701226D01*
X145312774Y-93557063D01*
X145143256Y-93443795D01*
X144954898Y-93365774D01*
X144754939Y-93326000D01*
X144551061Y-93326000D01*
X144351102Y-93365774D01*
X144162744Y-93443795D01*
X144114546Y-93476000D01*
X136563000Y-93476000D01*
X136563000Y-93203665D01*
X136507853Y-92926426D01*
X136399680Y-92665273D01*
X136242637Y-92430241D01*
X136042759Y-92230363D01*
X135807727Y-92073320D01*
X135546574Y-91965147D01*
X135269335Y-91910000D01*
X134986665Y-91910000D01*
X134951561Y-91916983D01*
X134133532Y-91098954D01*
X134105817Y-91065183D01*
X133971059Y-90954589D01*
X133817313Y-90872411D01*
X133650490Y-90821805D01*
X133520477Y-90809000D01*
X133520469Y-90809000D01*
X133477000Y-90804719D01*
X133433531Y-90809000D01*
X126408469Y-90809000D01*
X126365000Y-90804719D01*
X126321531Y-90809000D01*
X126321523Y-90809000D01*
X126191510Y-90821805D01*
X126024686Y-90872411D01*
X125870941Y-90954589D01*
X125769953Y-91037468D01*
X125769951Y-91037470D01*
X125736183Y-91065183D01*
X125708470Y-91098951D01*
X125134951Y-91672471D01*
X125101184Y-91700183D01*
X125073471Y-91733951D01*
X125073468Y-91733954D01*
X124990590Y-91834941D01*
X124908412Y-91988687D01*
X124857805Y-92155510D01*
X124840719Y-92329000D01*
X124845001Y-92372479D01*
X124845000Y-96534421D01*
X124185764Y-97193657D01*
X124084620Y-97092513D01*
X124157180Y-97070502D01*
X124267494Y-97011537D01*
X124364185Y-96932185D01*
X124443537Y-96835494D01*
X124502502Y-96725180D01*
X124538812Y-96605482D01*
X124551072Y-96481000D01*
X124548000Y-95916750D01*
X124389250Y-95758000D01*
X123190000Y-95758000D01*
X123190000Y-95778000D01*
X122936000Y-95778000D01*
X122936000Y-95758000D01*
X122916000Y-95758000D01*
X122916000Y-95504000D01*
X122936000Y-95504000D01*
X122936000Y-94304750D01*
X123190000Y-94304750D01*
X123190000Y-95504000D01*
X124389250Y-95504000D01*
X124548000Y-95345250D01*
X124551072Y-94781000D01*
X124538812Y-94656518D01*
X124502502Y-94536820D01*
X124443537Y-94426506D01*
X124364185Y-94329815D01*
X124267494Y-94250463D01*
X124157180Y-94191498D01*
X124037482Y-94155188D01*
X123913000Y-94142928D01*
X123348750Y-94146000D01*
X123190000Y-94304750D01*
X122936000Y-94304750D01*
X122777250Y-94146000D01*
X122297000Y-94143385D01*
X122297000Y-92060578D01*
X125729008Y-88628571D01*
X125733131Y-88649301D01*
X125832446Y-88889070D01*
X125976631Y-89104857D01*
X126160143Y-89288369D01*
X126375930Y-89432554D01*
X126615699Y-89531869D01*
X126870238Y-89582500D01*
X127129762Y-89582500D01*
X127384301Y-89531869D01*
X127624070Y-89432554D01*
X127839857Y-89288369D01*
X128023369Y-89104857D01*
X128167554Y-88889070D01*
X128266869Y-88649301D01*
X128270000Y-88633560D01*
X128273131Y-88649301D01*
X128372446Y-88889070D01*
X128516631Y-89104857D01*
X128700143Y-89288369D01*
X128915930Y-89432554D01*
X129155699Y-89531869D01*
X129410238Y-89582500D01*
X129669762Y-89582500D01*
X129924301Y-89531869D01*
X130164070Y-89432554D01*
X130379857Y-89288369D01*
X130563369Y-89104857D01*
X130707554Y-88889070D01*
X130806869Y-88649301D01*
X130857500Y-88394762D01*
X130857500Y-88135238D01*
X133302500Y-88135238D01*
X133302500Y-88394762D01*
X133353131Y-88649301D01*
X133452446Y-88889070D01*
X133596631Y-89104857D01*
X133780143Y-89288369D01*
X133995930Y-89432554D01*
X134235699Y-89531869D01*
X134490238Y-89582500D01*
X134749762Y-89582500D01*
X135004301Y-89531869D01*
X135244070Y-89432554D01*
X135459857Y-89288369D01*
X135643369Y-89104857D01*
X135787554Y-88889070D01*
X135886869Y-88649301D01*
X135890000Y-88633560D01*
X135893131Y-88649301D01*
X135992446Y-88889070D01*
X136136631Y-89104857D01*
X136320143Y-89288369D01*
X136535930Y-89432554D01*
X136775699Y-89531869D01*
X137030238Y-89582500D01*
X137225922Y-89582500D01*
X138789470Y-91146049D01*
X138817183Y-91179817D01*
X138850951Y-91207530D01*
X138850953Y-91207532D01*
X138922452Y-91266210D01*
X138951941Y-91290411D01*
X139105687Y-91372589D01*
X139272510Y-91423195D01*
X139402523Y-91436000D01*
X139402533Y-91436000D01*
X139445999Y-91440281D01*
X139489465Y-91436000D01*
X147924546Y-91436000D01*
X147972744Y-91468205D01*
X148161102Y-91546226D01*
X148361061Y-91586000D01*
X148564939Y-91586000D01*
X148764898Y-91546226D01*
X148953256Y-91468205D01*
X149098000Y-91371490D01*
X149242744Y-91468205D01*
X149431102Y-91546226D01*
X149631061Y-91586000D01*
X149834939Y-91586000D01*
X150034898Y-91546226D01*
X150223256Y-91468205D01*
X150368000Y-91371490D01*
X150512744Y-91468205D01*
X150701102Y-91546226D01*
X150901061Y-91586000D01*
X151104939Y-91586000D01*
X151304898Y-91546226D01*
X151493256Y-91468205D01*
X151662774Y-91354937D01*
X151806937Y-91210774D01*
X151920205Y-91041256D01*
X151998226Y-90852898D01*
X152038000Y-90652939D01*
X152038000Y-90449061D01*
X151998226Y-90249102D01*
X151920205Y-90060744D01*
X151806937Y-89891226D01*
X151662774Y-89747063D01*
X151493256Y-89633795D01*
X151304898Y-89555774D01*
X151248044Y-89544465D01*
X145436534Y-83732956D01*
X145408817Y-83699183D01*
X145274059Y-83588589D01*
X145120313Y-83506411D01*
X144953490Y-83455805D01*
X144823477Y-83443000D01*
X144823469Y-83443000D01*
X144780000Y-83438719D01*
X144736531Y-83443000D01*
X138600469Y-83443000D01*
X138557000Y-83438719D01*
X138513531Y-83443000D01*
X138513523Y-83443000D01*
X138383510Y-83455805D01*
X138216687Y-83506411D01*
X138192710Y-83519227D01*
X138062941Y-83588589D01*
X137961953Y-83671468D01*
X137961951Y-83671470D01*
X137928183Y-83699183D01*
X137900470Y-83732951D01*
X134685922Y-86947500D01*
X134490238Y-86947500D01*
X134235699Y-86998131D01*
X133995930Y-87097446D01*
X133780143Y-87241631D01*
X133596631Y-87425143D01*
X133452446Y-87640930D01*
X133353131Y-87880699D01*
X133302500Y-88135238D01*
X130857500Y-88135238D01*
X130806869Y-87880699D01*
X130707554Y-87640930D01*
X130563369Y-87425143D01*
X130379857Y-87241631D01*
X130164070Y-87097446D01*
X129924301Y-86998131D01*
X129669762Y-86947500D01*
X129410238Y-86947500D01*
X129155699Y-86998131D01*
X128915930Y-87097446D01*
X128700143Y-87241631D01*
X128516631Y-87425143D01*
X128372446Y-87640930D01*
X128273131Y-87880699D01*
X128270000Y-87896440D01*
X128266869Y-87880699D01*
X128167554Y-87640930D01*
X128023369Y-87425143D01*
X127839857Y-87241631D01*
X127624070Y-87097446D01*
X127384301Y-86998131D01*
X127363571Y-86994008D01*
X130135049Y-84222530D01*
X130168817Y-84194817D01*
X130201897Y-84154510D01*
X130279411Y-84060059D01*
X130318094Y-83987687D01*
X130361589Y-83906313D01*
X130412195Y-83739490D01*
X130425000Y-83609477D01*
X130425000Y-83609469D01*
X130429281Y-83566000D01*
X130425000Y-83522531D01*
X130425000Y-79389645D01*
X130466680Y-79377002D01*
X130576994Y-79318037D01*
X130673685Y-79238685D01*
X130753037Y-79141994D01*
X130812002Y-79031680D01*
X130848312Y-78911982D01*
X130860572Y-78787500D01*
X130860572Y-78603834D01*
X130912446Y-78729070D01*
G37*
X130912446Y-78729070D02*
X131056631Y-78944857D01*
X131240143Y-79128369D01*
X131455930Y-79272554D01*
X131695699Y-79371869D01*
X131950238Y-79422500D01*
X132145922Y-79422500D01*
X134852470Y-82129049D01*
X134880183Y-82162817D01*
X134913951Y-82190530D01*
X134913953Y-82190532D01*
X134974840Y-82240501D01*
X135014941Y-82273411D01*
X135168687Y-82355589D01*
X135335510Y-82406195D01*
X135465523Y-82419000D01*
X135465533Y-82419000D01*
X135508999Y-82423281D01*
X135552465Y-82419000D01*
X141574546Y-82419000D01*
X141622744Y-82451205D01*
X141811102Y-82529226D01*
X142011061Y-82569000D01*
X142214939Y-82569000D01*
X142414898Y-82529226D01*
X142603256Y-82451205D01*
X142772774Y-82337937D01*
X142916937Y-82193774D01*
X143030205Y-82024256D01*
X143108226Y-81835898D01*
X143148000Y-81635939D01*
X143148000Y-81432061D01*
X143114961Y-81265960D01*
X143281067Y-81299000D01*
X143484945Y-81299000D01*
X143684904Y-81259226D01*
X143873262Y-81181205D01*
X144042780Y-81067937D01*
X144186943Y-80923774D01*
X144275755Y-80790858D01*
X144289744Y-80800205D01*
X144478102Y-80878226D01*
X144534957Y-80889535D01*
X152531000Y-88885579D01*
X152531001Y-97296420D01*
X151525422Y-98302000D01*
X149669049Y-98302000D01*
X149674072Y-98251001D01*
X149674072Y-97600999D01*
X149657008Y-97427745D01*
X149606472Y-97261149D01*
X149524405Y-97107613D01*
X149413962Y-96973038D01*
X149326184Y-96901000D01*
X149413962Y-96828962D01*
X149524405Y-96694387D01*
X149606472Y-96540851D01*
X149657008Y-96374255D01*
X149674072Y-96201001D01*
X149674072Y-95550999D01*
X149657008Y-95377745D01*
X149606472Y-95211149D01*
X149524405Y-95057613D01*
X149413962Y-94923038D01*
X149279387Y-94812595D01*
X149125851Y-94730528D01*
X148959255Y-94679992D01*
X148786001Y-94662928D01*
X147885999Y-94662928D01*
X147712745Y-94679992D01*
X147546149Y-94730528D01*
X147392613Y-94812595D01*
X147258038Y-94923038D01*
X147202263Y-94991000D01*
X145786737Y-94991000D01*
X145730962Y-94923038D01*
X145596387Y-94812595D01*
X145588062Y-94808145D01*
X145648226Y-94662898D01*
X145688000Y-94462939D01*
X145688000Y-94259061D01*
X145648226Y-94059102D01*
X145570205Y-93870744D01*
X145456937Y-93701226D01*
X145312774Y-93557063D01*
X145143256Y-93443795D01*
X144954898Y-93365774D01*
X144754939Y-93326000D01*
X144551061Y-93326000D01*
X144351102Y-93365774D01*
X144162744Y-93443795D01*
X144114546Y-93476000D01*
X136563000Y-93476000D01*
X136563000Y-93203665D01*
X136507853Y-92926426D01*
X136399680Y-92665273D01*
X136242637Y-92430241D01*
X136042759Y-92230363D01*
X135807727Y-92073320D01*
X135546574Y-91965147D01*
X135269335Y-91910000D01*
X134986665Y-91910000D01*
X134951561Y-91916983D01*
X134133532Y-91098954D01*
X134105817Y-91065183D01*
X133971059Y-90954589D01*
X133817313Y-90872411D01*
X133650490Y-90821805D01*
X133520477Y-90809000D01*
X133520469Y-90809000D01*
X133477000Y-90804719D01*
X133433531Y-90809000D01*
X126408469Y-90809000D01*
X126365000Y-90804719D01*
X126321531Y-90809000D01*
X126321523Y-90809000D01*
X126191510Y-90821805D01*
X126024686Y-90872411D01*
X125870941Y-90954589D01*
X125769953Y-91037468D01*
X125769951Y-91037470D01*
X125736183Y-91065183D01*
X125708470Y-91098951D01*
X125134951Y-91672471D01*
X125101184Y-91700183D01*
X125073471Y-91733951D01*
X125073468Y-91733954D01*
X124990590Y-91834941D01*
X124908412Y-91988687D01*
X124857805Y-92155510D01*
X124840719Y-92329000D01*
X124845001Y-92372479D01*
X124845000Y-96534421D01*
X124185764Y-97193657D01*
X124084620Y-97092513D01*
X124157180Y-97070502D01*
X124267494Y-97011537D01*
X124364185Y-96932185D01*
X124443537Y-96835494D01*
X124502502Y-96725180D01*
X124538812Y-96605482D01*
X124551072Y-96481000D01*
X124548000Y-95916750D01*
X124389250Y-95758000D01*
X123190000Y-95758000D01*
X123190000Y-95778000D01*
X122936000Y-95778000D01*
X122936000Y-95758000D01*
X122916000Y-95758000D01*
X122916000Y-95504000D01*
X122936000Y-95504000D01*
X122936000Y-94304750D01*
X123190000Y-94304750D01*
X123190000Y-95504000D01*
X124389250Y-95504000D01*
X124548000Y-95345250D01*
X124551072Y-94781000D01*
X124538812Y-94656518D01*
X124502502Y-94536820D01*
X124443537Y-94426506D01*
X124364185Y-94329815D01*
X124267494Y-94250463D01*
X124157180Y-94191498D01*
X124037482Y-94155188D01*
X123913000Y-94142928D01*
X123348750Y-94146000D01*
X123190000Y-94304750D01*
X122936000Y-94304750D01*
X122777250Y-94146000D01*
X122297000Y-94143385D01*
X122297000Y-92060578D01*
X125729008Y-88628571D01*
X125733131Y-88649301D01*
X125832446Y-88889070D01*
X125976631Y-89104857D01*
X126160143Y-89288369D01*
X126375930Y-89432554D01*
X126615699Y-89531869D01*
X126870238Y-89582500D01*
X127129762Y-89582500D01*
X127384301Y-89531869D01*
X127624070Y-89432554D01*
X127839857Y-89288369D01*
X128023369Y-89104857D01*
X128167554Y-88889070D01*
X128266869Y-88649301D01*
X128270000Y-88633560D01*
X128273131Y-88649301D01*
X128372446Y-88889070D01*
X128516631Y-89104857D01*
X128700143Y-89288369D01*
X128915930Y-89432554D01*
X129155699Y-89531869D01*
X129410238Y-89582500D01*
X129669762Y-89582500D01*
X129924301Y-89531869D01*
X130164070Y-89432554D01*
X130379857Y-89288369D01*
X130563369Y-89104857D01*
X130707554Y-88889070D01*
X130806869Y-88649301D01*
X130857500Y-88394762D01*
X130857500Y-88135238D01*
X133302500Y-88135238D01*
X133302500Y-88394762D01*
X133353131Y-88649301D01*
X133452446Y-88889070D01*
X133596631Y-89104857D01*
X133780143Y-89288369D01*
X133995930Y-89432554D01*
X134235699Y-89531869D01*
X134490238Y-89582500D01*
X134749762Y-89582500D01*
X135004301Y-89531869D01*
X135244070Y-89432554D01*
X135459857Y-89288369D01*
X135643369Y-89104857D01*
X135787554Y-88889070D01*
X135886869Y-88649301D01*
X135890000Y-88633560D01*
X135893131Y-88649301D01*
X135992446Y-88889070D01*
X136136631Y-89104857D01*
X136320143Y-89288369D01*
X136535930Y-89432554D01*
X136775699Y-89531869D01*
X137030238Y-89582500D01*
X137225922Y-89582500D01*
X138789470Y-91146049D01*
X138817183Y-91179817D01*
X138850951Y-91207530D01*
X138850953Y-91207532D01*
X138922452Y-91266210D01*
X138951941Y-91290411D01*
X139105687Y-91372589D01*
X139272510Y-91423195D01*
X139402523Y-91436000D01*
X139402533Y-91436000D01*
X139445999Y-91440281D01*
X139489465Y-91436000D01*
X147924546Y-91436000D01*
X147972744Y-91468205D01*
X148161102Y-91546226D01*
X148361061Y-91586000D01*
X148564939Y-91586000D01*
X148764898Y-91546226D01*
X148953256Y-91468205D01*
X149098000Y-91371490D01*
X149242744Y-91468205D01*
X149431102Y-91546226D01*
X149631061Y-91586000D01*
X149834939Y-91586000D01*
X150034898Y-91546226D01*
X150223256Y-91468205D01*
X150368000Y-91371490D01*
X150512744Y-91468205D01*
X150701102Y-91546226D01*
X150901061Y-91586000D01*
X151104939Y-91586000D01*
X151304898Y-91546226D01*
X151493256Y-91468205D01*
X151662774Y-91354937D01*
X151806937Y-91210774D01*
X151920205Y-91041256D01*
X151998226Y-90852898D01*
X152038000Y-90652939D01*
X152038000Y-90449061D01*
X151998226Y-90249102D01*
X151920205Y-90060744D01*
X151806937Y-89891226D01*
X151662774Y-89747063D01*
X151493256Y-89633795D01*
X151304898Y-89555774D01*
X151248044Y-89544465D01*
X145436534Y-83732956D01*
X145408817Y-83699183D01*
X145274059Y-83588589D01*
X145120313Y-83506411D01*
X144953490Y-83455805D01*
X144823477Y-83443000D01*
X144823469Y-83443000D01*
X144780000Y-83438719D01*
X144736531Y-83443000D01*
X138600469Y-83443000D01*
X138557000Y-83438719D01*
X138513531Y-83443000D01*
X138513523Y-83443000D01*
X138383510Y-83455805D01*
X138216687Y-83506411D01*
X138192710Y-83519227D01*
X138062941Y-83588589D01*
X137961953Y-83671468D01*
X137961951Y-83671470D01*
X137928183Y-83699183D01*
X137900470Y-83732951D01*
X134685922Y-86947500D01*
X134490238Y-86947500D01*
X134235699Y-86998131D01*
X133995930Y-87097446D01*
X133780143Y-87241631D01*
X133596631Y-87425143D01*
X133452446Y-87640930D01*
X133353131Y-87880699D01*
X133302500Y-88135238D01*
X130857500Y-88135238D01*
X130806869Y-87880699D01*
X130707554Y-87640930D01*
X130563369Y-87425143D01*
X130379857Y-87241631D01*
X130164070Y-87097446D01*
X129924301Y-86998131D01*
X129669762Y-86947500D01*
X129410238Y-86947500D01*
X129155699Y-86998131D01*
X128915930Y-87097446D01*
X128700143Y-87241631D01*
X128516631Y-87425143D01*
X128372446Y-87640930D01*
X128273131Y-87880699D01*
X128270000Y-87896440D01*
X128266869Y-87880699D01*
X128167554Y-87640930D01*
X128023369Y-87425143D01*
X127839857Y-87241631D01*
X127624070Y-87097446D01*
X127384301Y-86998131D01*
X127363571Y-86994008D01*
X130135049Y-84222530D01*
X130168817Y-84194817D01*
X130201897Y-84154510D01*
X130279411Y-84060059D01*
X130318094Y-83987687D01*
X130361589Y-83906313D01*
X130412195Y-83739490D01*
X130425000Y-83609477D01*
X130425000Y-83609469D01*
X130429281Y-83566000D01*
X130425000Y-83522531D01*
X130425000Y-79389645D01*
X130466680Y-79377002D01*
X130576994Y-79318037D01*
X130673685Y-79238685D01*
X130753037Y-79141994D01*
X130812002Y-79031680D01*
X130848312Y-78911982D01*
X130860572Y-78787500D01*
X130860572Y-78603834D01*
X130912446Y-78729070D01*
%TD*%
M02*
