%TF.GenerationSoftware,KiCad,Pcbnew,(5.1.6)-1*%
%TF.CreationDate,2021-07-08T13:54:37-04:00*%
%TF.ProjectId,Turbo-Display-V3-Simple,54757262-6f2d-4446-9973-706c61792d56,rev?*%
%TF.SameCoordinates,Original*%
%TF.FileFunction,Paste,Bot*%
%TF.FilePolarity,Positive*%
%FSLAX46Y46*%
G04 Gerber Fmt 4.6, Leading zero omitted, Abs format (unit mm)*
G04 Created by KiCad (PCBNEW (5.1.6)-1) date 2021-07-08 13:54:37*
%MOMM*%
%LPD*%
G01*
G04 APERTURE LIST*
G04 APERTURE END LIST*
%TO.C,C1*%
G36*
G01*
X122479000Y-101415001D02*
X122479000Y-100514999D01*
G75*
G02*
X122728999Y-100265000I249999J0D01*
G01*
X123379001Y-100265000D01*
G75*
G02*
X123629000Y-100514999I0J-249999D01*
G01*
X123629000Y-101415001D01*
G75*
G02*
X123379001Y-101665000I-249999J0D01*
G01*
X122728999Y-101665000D01*
G75*
G02*
X122479000Y-101415001I0J249999D01*
G01*
G37*
G36*
G01*
X124529000Y-101415001D02*
X124529000Y-100514999D01*
G75*
G02*
X124778999Y-100265000I249999J0D01*
G01*
X125429001Y-100265000D01*
G75*
G02*
X125679000Y-100514999I0J-249999D01*
G01*
X125679000Y-101415001D01*
G75*
G02*
X125429001Y-101665000I-249999J0D01*
G01*
X124778999Y-101665000D01*
G75*
G02*
X124529000Y-101415001I0J249999D01*
G01*
G37*
%TD*%
%TO.C,C2*%
G36*
G01*
X144202999Y-97351000D02*
X145103001Y-97351000D01*
G75*
G02*
X145353000Y-97600999I0J-249999D01*
G01*
X145353000Y-98251001D01*
G75*
G02*
X145103001Y-98501000I-249999J0D01*
G01*
X144202999Y-98501000D01*
G75*
G02*
X143953000Y-98251001I0J249999D01*
G01*
X143953000Y-97600999D01*
G75*
G02*
X144202999Y-97351000I249999J0D01*
G01*
G37*
G36*
G01*
X144202999Y-95301000D02*
X145103001Y-95301000D01*
G75*
G02*
X145353000Y-95550999I0J-249999D01*
G01*
X145353000Y-96201001D01*
G75*
G02*
X145103001Y-96451000I-249999J0D01*
G01*
X144202999Y-96451000D01*
G75*
G02*
X143953000Y-96201001I0J249999D01*
G01*
X143953000Y-95550999D01*
G75*
G02*
X144202999Y-95301000I249999J0D01*
G01*
G37*
%TD*%
%TO.C,R1*%
G36*
G01*
X147885999Y-95301000D02*
X148786001Y-95301000D01*
G75*
G02*
X149036000Y-95550999I0J-249999D01*
G01*
X149036000Y-96201001D01*
G75*
G02*
X148786001Y-96451000I-249999J0D01*
G01*
X147885999Y-96451000D01*
G75*
G02*
X147636000Y-96201001I0J249999D01*
G01*
X147636000Y-95550999D01*
G75*
G02*
X147885999Y-95301000I249999J0D01*
G01*
G37*
G36*
G01*
X147885999Y-97351000D02*
X148786001Y-97351000D01*
G75*
G02*
X149036000Y-97600999I0J-249999D01*
G01*
X149036000Y-98251001D01*
G75*
G02*
X148786001Y-98501000I-249999J0D01*
G01*
X147885999Y-98501000D01*
G75*
G02*
X147636000Y-98251001I0J249999D01*
G01*
X147636000Y-97600999D01*
G75*
G02*
X147885999Y-97351000I249999J0D01*
G01*
G37*
%TD*%
%TO.C,R2*%
G36*
G01*
X130868000Y-100514999D02*
X130868000Y-101415001D01*
G75*
G02*
X130618001Y-101665000I-249999J0D01*
G01*
X129967999Y-101665000D01*
G75*
G02*
X129718000Y-101415001I0J249999D01*
G01*
X129718000Y-100514999D01*
G75*
G02*
X129967999Y-100265000I249999J0D01*
G01*
X130618001Y-100265000D01*
G75*
G02*
X130868000Y-100514999I0J-249999D01*
G01*
G37*
G36*
G01*
X132918000Y-100514999D02*
X132918000Y-101415001D01*
G75*
G02*
X132668001Y-101665000I-249999J0D01*
G01*
X132017999Y-101665000D01*
G75*
G02*
X131768000Y-101415001I0J249999D01*
G01*
X131768000Y-100514999D01*
G75*
G02*
X132017999Y-100265000I249999J0D01*
G01*
X132668001Y-100265000D01*
G75*
G02*
X132918000Y-100514999I0J-249999D01*
G01*
G37*
%TD*%
%TO.C,R3*%
G36*
G01*
X141420001Y-98501000D02*
X140519999Y-98501000D01*
G75*
G02*
X140270000Y-98251001I0J249999D01*
G01*
X140270000Y-97600999D01*
G75*
G02*
X140519999Y-97351000I249999J0D01*
G01*
X141420001Y-97351000D01*
G75*
G02*
X141670000Y-97600999I0J-249999D01*
G01*
X141670000Y-98251001D01*
G75*
G02*
X141420001Y-98501000I-249999J0D01*
G01*
G37*
G36*
G01*
X141420001Y-96451000D02*
X140519999Y-96451000D01*
G75*
G02*
X140270000Y-96201001I0J249999D01*
G01*
X140270000Y-95550999D01*
G75*
G02*
X140519999Y-95301000I249999J0D01*
G01*
X141420001Y-95301000D01*
G75*
G02*
X141670000Y-95550999I0J-249999D01*
G01*
X141670000Y-96201001D01*
G75*
G02*
X141420001Y-96451000I-249999J0D01*
G01*
G37*
%TD*%
M02*
