%TF.GenerationSoftware,KiCad,Pcbnew,(5.1.6)-1*%
%TF.CreationDate,2021-07-08T13:54:37-04:00*%
%TF.ProjectId,Turbo-Display-V3-Simple,54757262-6f2d-4446-9973-706c61792d56,rev?*%
%TF.SameCoordinates,Original*%
%TF.FileFunction,Copper,L1,Top*%
%TF.FilePolarity,Positive*%
%FSLAX46Y46*%
G04 Gerber Fmt 4.6, Leading zero omitted, Abs format (unit mm)*
G04 Created by KiCad (PCBNEW (5.1.6)-1) date 2021-07-08 13:54:37*
%MOMM*%
%LPD*%
G01*
G04 APERTURE LIST*
%TA.AperFunction,ComponentPad*%
%ADD10R,1.365000X1.365000*%
%TD*%
%TA.AperFunction,ComponentPad*%
%ADD11C,1.365000*%
%TD*%
%TA.AperFunction,SMDPad,CuDef*%
%ADD12R,0.650000X1.925000*%
%TD*%
%TA.AperFunction,ComponentPad*%
%ADD13R,1.700000X1.700000*%
%TD*%
%TA.AperFunction,ComponentPad*%
%ADD14O,1.700000X1.700000*%
%TD*%
%TA.AperFunction,ComponentPad*%
%ADD15R,1.600000X1.600000*%
%TD*%
%TA.AperFunction,ComponentPad*%
%ADD16O,1.600000X1.600000*%
%TD*%
%TA.AperFunction,ViaPad*%
%ADD17C,0.800000*%
%TD*%
%TA.AperFunction,Conductor*%
%ADD18C,0.500000*%
%TD*%
%TA.AperFunction,Conductor*%
%ADD19C,0.254000*%
%TD*%
G04 APERTURE END LIST*
D10*
%TO.P,DS1,1*%
%TO.N,/DIG1*%
X129540000Y-78105000D03*
D11*
%TO.P,DS1,2*%
%TO.N,/SEGE*%
X132080000Y-78105000D03*
%TO.P,DS1,3*%
%TO.N,/SEGC*%
X134620000Y-78105000D03*
%TO.P,DS1,4*%
%TO.N,/SEGD*%
X137160000Y-78105000D03*
%TO.P,DS1,5*%
%TO.N,/DIG2*%
X139700000Y-78105000D03*
%TO.P,DS1,6*%
%TO.N,/SEGDP*%
X142240000Y-78105000D03*
%TO.P,DS1,7*%
%TO.N,/DIG3*%
X144780000Y-78105000D03*
%TO.P,DS1,8*%
%TO.N,/SEGG*%
X144780000Y-88265000D03*
%TO.P,DS1,11*%
%TO.N,/SEGB*%
X137160000Y-88265000D03*
%TO.P,DS1,12*%
%TO.N,/SEGA*%
X134620000Y-88265000D03*
%TO.P,DS1,14*%
%TO.N,Net-(DS1-Pad14)*%
X129540000Y-88265000D03*
%TO.P,DS1,15*%
%TO.N,/SEGF*%
X127000000Y-88265000D03*
%TD*%
D12*
%TO.P,IC1,1*%
%TO.N,/DATA*%
X138303000Y-101867000D03*
%TO.P,IC1,2*%
%TO.N,/DIG1*%
X139573000Y-101867000D03*
%TO.P,IC1,3*%
%TO.N,Net-(IC1-Pad3)*%
X140843000Y-101867000D03*
%TO.P,IC1,4*%
%TO.N,GND*%
X142113000Y-101867000D03*
%TO.P,IC1,5*%
%TO.N,Net-(IC1-Pad5)*%
X143383000Y-101867000D03*
%TO.P,IC1,6*%
%TO.N,/DIG3*%
X144653000Y-101867000D03*
%TO.P,IC1,7*%
%TO.N,Net-(IC1-Pad7)*%
X145923000Y-101867000D03*
%TO.P,IC1,8*%
%TO.N,Net-(IC1-Pad8)*%
X147193000Y-101867000D03*
%TO.P,IC1,9*%
%TO.N,GND*%
X148463000Y-101867000D03*
%TO.P,IC1,10*%
%TO.N,Net-(IC1-Pad10)*%
X149733000Y-101867000D03*
%TO.P,IC1,11*%
%TO.N,/DIG2*%
X151003000Y-101867000D03*
%TO.P,IC1,12*%
%TO.N,/LOAD*%
X152273000Y-101867000D03*
%TO.P,IC1,13*%
%TO.N,/CLOCK*%
X152273000Y-92443000D03*
%TO.P,IC1,14*%
%TO.N,/SEGA*%
X151003000Y-92443000D03*
%TO.P,IC1,15*%
%TO.N,/SEGF*%
X149733000Y-92443000D03*
%TO.P,IC1,16*%
%TO.N,/SEGB*%
X148463000Y-92443000D03*
%TO.P,IC1,17*%
%TO.N,/SEGG*%
X147193000Y-92443000D03*
%TO.P,IC1,18*%
%TO.N,Net-(IC1-Pad18)*%
X145923000Y-92443000D03*
%TO.P,IC1,19*%
%TO.N,+5V*%
X144653000Y-92443000D03*
%TO.P,IC1,20*%
%TO.N,/SEGC*%
X143383000Y-92443000D03*
%TO.P,IC1,21*%
%TO.N,/SEGE*%
X142113000Y-92443000D03*
%TO.P,IC1,22*%
%TO.N,/SEGDP*%
X140843000Y-92443000D03*
%TO.P,IC1,23*%
%TO.N,/SEGD*%
X139573000Y-92443000D03*
%TO.P,IC1,24*%
%TO.N,Net-(IC1-Pad24)*%
X138303000Y-92443000D03*
%TD*%
D13*
%TO.P,5V,1*%
%TO.N,GND*%
X123063000Y-95631000D03*
D14*
%TO.P,5V,2*%
%TO.N,+5V*%
X123063000Y-98171000D03*
%TD*%
D13*
%TO.P,IN,1*%
%TO.N,GND*%
X130175000Y-105537000D03*
D14*
%TO.P,IN,2*%
%TO.N,/TLED_IN*%
X132715000Y-105537000D03*
%TD*%
%TO.P,OUT,2*%
%TO.N,Net-(J3-Pad2)*%
X139573000Y-105537000D03*
D13*
%TO.P,OUT,1*%
%TO.N,GND*%
X142113000Y-105537000D03*
%TD*%
D15*
%TO.P,U1,1*%
%TO.N,Net-(U1-Pad1)*%
X127508000Y-93345000D03*
D16*
%TO.P,U1,5*%
%TO.N,/TLED_IN*%
X135128000Y-100965000D03*
%TO.P,U1,2*%
%TO.N,/LOAD*%
X127508000Y-95885000D03*
%TO.P,U1,6*%
%TO.N,/DATA*%
X135128000Y-98425000D03*
%TO.P,U1,3*%
%TO.N,/CLOCK*%
X127508000Y-98425000D03*
%TO.P,U1,7*%
%TO.N,/TLED_OUT*%
X135128000Y-95885000D03*
%TO.P,U1,4*%
%TO.N,GND*%
X127508000Y-100965000D03*
%TO.P,U1,8*%
%TO.N,+5V*%
X135128000Y-93345000D03*
%TD*%
D17*
%TO.N,+5V*%
X144653000Y-94361000D03*
%TO.N,GND*%
X130302000Y-99314000D03*
X125095000Y-99314000D03*
X142113000Y-99949000D03*
X148463000Y-100203000D03*
%TO.N,/DIG1*%
X129413002Y-103289990D03*
%TO.N,/SEGE*%
X142113000Y-81534000D03*
%TO.N,/SEGC*%
X143383006Y-80264000D03*
%TO.N,/DIG3*%
X144780000Y-79883000D03*
X144653000Y-99949000D03*
%TO.N,/SEGB*%
X148463000Y-90551000D03*
%TO.N,/SEGA*%
X151003000Y-90551000D03*
%TO.N,/SEGF*%
X149733000Y-90551000D03*
X138557000Y-86360000D03*
%TO.N,Net-(IC1-Pad18)*%
X146558000Y-97917000D03*
%TD*%
D18*
%TO.N,+5V*%
X144653000Y-94361000D02*
X144653000Y-92443000D01*
%TO.N,GND*%
X142113000Y-101867000D02*
X142113000Y-99949000D01*
X148463000Y-101867000D02*
X148463000Y-100203000D01*
%TO.N,/DIG1*%
X129520011Y-103396999D02*
X129413002Y-103289990D01*
X139573000Y-101867000D02*
X139573000Y-103329500D01*
X139573000Y-103329500D02*
X139505501Y-103396999D01*
X139505501Y-103396999D02*
X129520011Y-103396999D01*
%TO.N,/SEGE*%
X142113000Y-92443000D02*
X142113000Y-81534000D01*
%TO.N,/SEGC*%
X143383000Y-80264006D02*
X143383006Y-80264000D01*
X143383000Y-92443000D02*
X143383000Y-80264006D01*
%TO.N,/SEGD*%
X139573000Y-80518000D02*
X137160000Y-78105000D01*
X139573000Y-92443000D02*
X139573000Y-80518000D01*
%TO.N,/DIG2*%
X139700000Y-77597000D02*
X139700000Y-78105000D01*
X140716000Y-76581000D02*
X139700000Y-77597000D01*
X145542000Y-76581000D02*
X140716000Y-76581000D01*
X151003000Y-95810502D02*
X153416000Y-93397502D01*
X151003000Y-101867000D02*
X151003000Y-95810502D01*
X146431000Y-77470000D02*
X145542000Y-76581000D01*
X153416000Y-93397502D02*
X153416000Y-91488498D01*
X146431000Y-84503498D02*
X146431000Y-77470000D01*
X153416000Y-91488498D02*
X146431000Y-84503498D01*
%TO.N,/SEGDP*%
X140843000Y-79502000D02*
X142240000Y-78105000D01*
X140843000Y-92443000D02*
X140843000Y-79502000D01*
%TO.N,/DIG3*%
X144780000Y-78105000D02*
X144780000Y-79883000D01*
X144780000Y-79883000D02*
X144780000Y-79883000D01*
X144653000Y-99949000D02*
X144653000Y-101867000D01*
%TO.N,/SEGG*%
X147193000Y-90678000D02*
X144780000Y-88265000D01*
X147193000Y-92443000D02*
X147193000Y-90678000D01*
%TO.N,/SEGB*%
X148463000Y-90551000D02*
X148463000Y-92443000D01*
%TO.N,/SEGA*%
X151003000Y-90551000D02*
X151003000Y-92443000D01*
%TO.N,/SEGF*%
X149733000Y-90551000D02*
X149733000Y-92443000D01*
X128905000Y-86360000D02*
X127000000Y-88265000D01*
X138557000Y-86360000D02*
X128905000Y-86360000D01*
%TO.N,/DATA*%
X138303000Y-101600000D02*
X135128000Y-98425000D01*
X138303000Y-101867000D02*
X138303000Y-101600000D01*
%TO.N,/LOAD*%
X152273000Y-103329500D02*
X152273000Y-101867000D01*
X128281998Y-104140000D02*
X151462500Y-104140000D01*
X126257999Y-102116001D02*
X128281998Y-104140000D01*
X127508000Y-95885000D02*
X126257999Y-97135001D01*
X151462500Y-104140000D02*
X152273000Y-103329500D01*
X126257999Y-97135001D02*
X126257999Y-102116001D01*
%TO.N,/CLOCK*%
X128758001Y-97174999D02*
X127508000Y-98425000D01*
X135728001Y-97174999D02*
X128758001Y-97174999D01*
X137320003Y-98767001D02*
X135728001Y-97174999D01*
X146966001Y-98767001D02*
X137320003Y-98767001D01*
X152273000Y-93460002D02*
X146966001Y-98767001D01*
X152273000Y-92443000D02*
X152273000Y-93460002D01*
%TO.N,Net-(IC1-Pad18)*%
X145923000Y-97282000D02*
X145923000Y-92443000D01*
X146558000Y-97917000D02*
X145923000Y-97282000D01*
%TD*%
D19*
%TO.N,GND*%
G36*
X153645001Y-78453571D02*
G01*
X153641807Y-78486000D01*
X153654550Y-78615383D01*
X153692290Y-78739793D01*
X153753575Y-78854450D01*
X153836052Y-78954948D01*
X153936550Y-79037425D01*
X154051207Y-79098710D01*
X154175617Y-79136450D01*
X154272581Y-79146000D01*
X154305000Y-79149193D01*
X154337419Y-79146000D01*
X156127107Y-79146000D01*
X156632433Y-79195548D01*
X157087466Y-79332931D01*
X157507146Y-79556079D01*
X157875486Y-79856490D01*
X158178465Y-80222730D01*
X158404536Y-80640838D01*
X158492379Y-80924614D01*
X154272581Y-80924614D01*
X154238892Y-80927932D01*
X154216476Y-80927932D01*
X154207311Y-80928895D01*
X153872285Y-80966475D01*
X153813792Y-80978909D01*
X153755096Y-80990530D01*
X153746293Y-80993256D01*
X153424948Y-81095192D01*
X153369962Y-81118759D01*
X153314658Y-81141553D01*
X153306552Y-81145936D01*
X153011126Y-81308348D01*
X152961790Y-81342129D01*
X152911944Y-81375246D01*
X152904844Y-81381121D01*
X152646590Y-81597822D01*
X152604746Y-81640552D01*
X152562291Y-81682711D01*
X152556467Y-81689853D01*
X152345222Y-81952589D01*
X152312506Y-82002584D01*
X152279016Y-82052235D01*
X152274690Y-82060372D01*
X152118501Y-82359135D01*
X152096086Y-82414617D01*
X152072912Y-82469743D01*
X152070249Y-82478565D01*
X151975064Y-82801974D01*
X151963863Y-82860693D01*
X151951826Y-82919330D01*
X151950927Y-82928501D01*
X151920372Y-83264241D01*
X151920790Y-83324058D01*
X151920372Y-83383876D01*
X151921271Y-83393047D01*
X151956511Y-83728327D01*
X151968530Y-83786877D01*
X151979747Y-83845684D01*
X151982411Y-83854506D01*
X152082102Y-84176556D01*
X152105283Y-84231701D01*
X152127692Y-84287165D01*
X152132018Y-84295302D01*
X152292364Y-84591855D01*
X152325831Y-84641471D01*
X152358569Y-84691501D01*
X152364393Y-84698642D01*
X152579286Y-84958403D01*
X152621742Y-85000563D01*
X152663586Y-85043293D01*
X152670686Y-85049167D01*
X152931941Y-85262240D01*
X152981747Y-85295331D01*
X153031120Y-85329138D01*
X153039227Y-85333521D01*
X153336892Y-85491793D01*
X153392196Y-85514587D01*
X153447180Y-85538154D01*
X153455984Y-85540879D01*
X153778722Y-85638319D01*
X153837395Y-85649936D01*
X153895912Y-85662375D01*
X153905077Y-85663338D01*
X154240595Y-85696236D01*
X154240598Y-85696236D01*
X154272581Y-85699386D01*
X158492008Y-85699386D01*
X158411070Y-85967464D01*
X158187924Y-86387141D01*
X157887510Y-86755486D01*
X157521271Y-87058465D01*
X157103158Y-87284538D01*
X156649102Y-87425091D01*
X156145702Y-87478000D01*
X154337419Y-87478000D01*
X154305000Y-87474807D01*
X154272581Y-87478000D01*
X154175617Y-87487550D01*
X154051207Y-87525290D01*
X153936550Y-87586575D01*
X153836052Y-87669052D01*
X153753575Y-87769550D01*
X153692290Y-87884207D01*
X153654550Y-88008617D01*
X153641807Y-88138000D01*
X153645001Y-88170429D01*
X153645001Y-90465920D01*
X147316000Y-84136920D01*
X147316000Y-77513469D01*
X147320281Y-77470000D01*
X147316000Y-77426531D01*
X147316000Y-77426523D01*
X147303195Y-77296510D01*
X147252589Y-77129687D01*
X147170411Y-76975941D01*
X147138819Y-76937446D01*
X147087532Y-76874953D01*
X147087530Y-76874951D01*
X147059817Y-76841183D01*
X147026049Y-76813470D01*
X146198534Y-75985956D01*
X146170817Y-75952183D01*
X146036059Y-75841589D01*
X145882313Y-75759411D01*
X145715490Y-75708805D01*
X145585477Y-75696000D01*
X145585469Y-75696000D01*
X145542000Y-75691719D01*
X145498531Y-75696000D01*
X140759469Y-75696000D01*
X140716000Y-75691719D01*
X140672531Y-75696000D01*
X140672523Y-75696000D01*
X140557306Y-75707348D01*
X140542509Y-75708805D01*
X140491903Y-75724157D01*
X140375687Y-75759411D01*
X140221941Y-75841589D01*
X140221939Y-75841590D01*
X140221940Y-75841590D01*
X140120953Y-75924468D01*
X140120951Y-75924470D01*
X140087183Y-75952183D01*
X140059470Y-75985951D01*
X139130636Y-76914786D01*
X139075930Y-76937446D01*
X138860143Y-77081631D01*
X138676631Y-77265143D01*
X138532446Y-77480930D01*
X138433131Y-77720699D01*
X138430000Y-77736440D01*
X138426869Y-77720699D01*
X138327554Y-77480930D01*
X138183369Y-77265143D01*
X137999857Y-77081631D01*
X137784070Y-76937446D01*
X137544301Y-76838131D01*
X137289762Y-76787500D01*
X137030238Y-76787500D01*
X136775699Y-76838131D01*
X136535930Y-76937446D01*
X136320143Y-77081631D01*
X136136631Y-77265143D01*
X135992446Y-77480930D01*
X135893131Y-77720699D01*
X135890000Y-77736440D01*
X135886869Y-77720699D01*
X135787554Y-77480930D01*
X135643369Y-77265143D01*
X135459857Y-77081631D01*
X135244070Y-76937446D01*
X135004301Y-76838131D01*
X134749762Y-76787500D01*
X134490238Y-76787500D01*
X134235699Y-76838131D01*
X133995930Y-76937446D01*
X133780143Y-77081631D01*
X133596631Y-77265143D01*
X133452446Y-77480930D01*
X133353131Y-77720699D01*
X133350000Y-77736440D01*
X133346869Y-77720699D01*
X133247554Y-77480930D01*
X133103369Y-77265143D01*
X132919857Y-77081631D01*
X132704070Y-76937446D01*
X132464301Y-76838131D01*
X132209762Y-76787500D01*
X131950238Y-76787500D01*
X131695699Y-76838131D01*
X131455930Y-76937446D01*
X131240143Y-77081631D01*
X131056631Y-77265143D01*
X130912446Y-77480930D01*
X130860572Y-77606166D01*
X130860572Y-77422500D01*
X130848312Y-77298018D01*
X130812002Y-77178320D01*
X130753037Y-77068006D01*
X130673685Y-76971315D01*
X130576994Y-76891963D01*
X130466680Y-76832998D01*
X130346982Y-76796688D01*
X130222500Y-76784428D01*
X128857500Y-76784428D01*
X128733018Y-76796688D01*
X128613320Y-76832998D01*
X128503006Y-76891963D01*
X128406315Y-76971315D01*
X128326963Y-77068006D01*
X128267998Y-77178320D01*
X128231688Y-77298018D01*
X128219428Y-77422500D01*
X128219428Y-78787500D01*
X128231688Y-78911982D01*
X128267998Y-79031680D01*
X128326963Y-79141994D01*
X128406315Y-79238685D01*
X128503006Y-79318037D01*
X128613320Y-79377002D01*
X128733018Y-79413312D01*
X128857500Y-79425572D01*
X130222500Y-79425572D01*
X130346982Y-79413312D01*
X130466680Y-79377002D01*
X130576994Y-79318037D01*
X130673685Y-79238685D01*
X130753037Y-79141994D01*
X130812002Y-79031680D01*
X130848312Y-78911982D01*
X130860572Y-78787500D01*
X130860572Y-78603834D01*
X130912446Y-78729070D01*
X131056631Y-78944857D01*
X131240143Y-79128369D01*
X131455930Y-79272554D01*
X131695699Y-79371869D01*
X131950238Y-79422500D01*
X132209762Y-79422500D01*
X132464301Y-79371869D01*
X132704070Y-79272554D01*
X132919857Y-79128369D01*
X133103369Y-78944857D01*
X133247554Y-78729070D01*
X133346869Y-78489301D01*
X133350000Y-78473560D01*
X133353131Y-78489301D01*
X133452446Y-78729070D01*
X133596631Y-78944857D01*
X133780143Y-79128369D01*
X133995930Y-79272554D01*
X134235699Y-79371869D01*
X134490238Y-79422500D01*
X134749762Y-79422500D01*
X135004301Y-79371869D01*
X135244070Y-79272554D01*
X135459857Y-79128369D01*
X135643369Y-78944857D01*
X135787554Y-78729070D01*
X135886869Y-78489301D01*
X135890000Y-78473560D01*
X135893131Y-78489301D01*
X135992446Y-78729070D01*
X136136631Y-78944857D01*
X136320143Y-79128369D01*
X136535930Y-79272554D01*
X136775699Y-79371869D01*
X137030238Y-79422500D01*
X137225922Y-79422500D01*
X138688001Y-80884580D01*
X138688001Y-85330781D01*
X138658939Y-85325000D01*
X138455061Y-85325000D01*
X138255102Y-85364774D01*
X138066744Y-85442795D01*
X138018546Y-85475000D01*
X128948469Y-85475000D01*
X128905000Y-85470719D01*
X128861531Y-85475000D01*
X128861523Y-85475000D01*
X128731510Y-85487805D01*
X128564687Y-85538411D01*
X128431732Y-85609476D01*
X128410941Y-85620589D01*
X128309953Y-85703468D01*
X128309951Y-85703470D01*
X128276183Y-85731183D01*
X128248470Y-85764951D01*
X127065922Y-86947500D01*
X126870238Y-86947500D01*
X126615699Y-86998131D01*
X126375930Y-87097446D01*
X126160143Y-87241631D01*
X125976631Y-87425143D01*
X125832446Y-87640930D01*
X125733131Y-87880699D01*
X125682500Y-88135238D01*
X125682500Y-88394762D01*
X125733131Y-88649301D01*
X125832446Y-88889070D01*
X125976631Y-89104857D01*
X126160143Y-89288369D01*
X126375930Y-89432554D01*
X126615699Y-89531869D01*
X126870238Y-89582500D01*
X127129762Y-89582500D01*
X127384301Y-89531869D01*
X127624070Y-89432554D01*
X127839857Y-89288369D01*
X128023369Y-89104857D01*
X128167554Y-88889070D01*
X128266869Y-88649301D01*
X128270000Y-88633560D01*
X128273131Y-88649301D01*
X128372446Y-88889070D01*
X128516631Y-89104857D01*
X128700143Y-89288369D01*
X128915930Y-89432554D01*
X129155699Y-89531869D01*
X129410238Y-89582500D01*
X129669762Y-89582500D01*
X129924301Y-89531869D01*
X130164070Y-89432554D01*
X130379857Y-89288369D01*
X130563369Y-89104857D01*
X130707554Y-88889070D01*
X130806869Y-88649301D01*
X130857500Y-88394762D01*
X130857500Y-88135238D01*
X130806869Y-87880699D01*
X130707554Y-87640930D01*
X130563369Y-87425143D01*
X130383226Y-87245000D01*
X133776774Y-87245000D01*
X133596631Y-87425143D01*
X133452446Y-87640930D01*
X133353131Y-87880699D01*
X133302500Y-88135238D01*
X133302500Y-88394762D01*
X133353131Y-88649301D01*
X133452446Y-88889070D01*
X133596631Y-89104857D01*
X133780143Y-89288369D01*
X133995930Y-89432554D01*
X134235699Y-89531869D01*
X134490238Y-89582500D01*
X134749762Y-89582500D01*
X135004301Y-89531869D01*
X135244070Y-89432554D01*
X135459857Y-89288369D01*
X135643369Y-89104857D01*
X135787554Y-88889070D01*
X135886869Y-88649301D01*
X135890000Y-88633560D01*
X135893131Y-88649301D01*
X135992446Y-88889070D01*
X136136631Y-89104857D01*
X136320143Y-89288369D01*
X136535930Y-89432554D01*
X136775699Y-89531869D01*
X137030238Y-89582500D01*
X137289762Y-89582500D01*
X137544301Y-89531869D01*
X137784070Y-89432554D01*
X137999857Y-89288369D01*
X138183369Y-89104857D01*
X138327554Y-88889070D01*
X138426869Y-88649301D01*
X138477500Y-88394762D01*
X138477500Y-88135238D01*
X138426869Y-87880699D01*
X138327554Y-87640930D01*
X138183369Y-87425143D01*
X138003226Y-87245000D01*
X138018546Y-87245000D01*
X138066744Y-87277205D01*
X138255102Y-87355226D01*
X138455061Y-87395000D01*
X138658939Y-87395000D01*
X138688000Y-87389219D01*
X138688000Y-90848337D01*
X138628000Y-90842428D01*
X137978000Y-90842428D01*
X137853518Y-90854688D01*
X137733820Y-90890998D01*
X137623506Y-90949963D01*
X137526815Y-91029315D01*
X137447463Y-91126006D01*
X137388498Y-91236320D01*
X137352188Y-91356018D01*
X137339928Y-91480500D01*
X137339928Y-93405500D01*
X137352188Y-93529982D01*
X137388498Y-93649680D01*
X137447463Y-93759994D01*
X137526815Y-93856685D01*
X137623506Y-93936037D01*
X137733820Y-93995002D01*
X137853518Y-94031312D01*
X137978000Y-94043572D01*
X138628000Y-94043572D01*
X138752482Y-94031312D01*
X138872180Y-93995002D01*
X138938000Y-93959820D01*
X139003820Y-93995002D01*
X139123518Y-94031312D01*
X139248000Y-94043572D01*
X139898000Y-94043572D01*
X140022482Y-94031312D01*
X140142180Y-93995002D01*
X140208000Y-93959820D01*
X140273820Y-93995002D01*
X140393518Y-94031312D01*
X140518000Y-94043572D01*
X141168000Y-94043572D01*
X141292482Y-94031312D01*
X141412180Y-93995002D01*
X141478000Y-93959820D01*
X141543820Y-93995002D01*
X141663518Y-94031312D01*
X141788000Y-94043572D01*
X142438000Y-94043572D01*
X142562482Y-94031312D01*
X142682180Y-93995002D01*
X142748000Y-93959820D01*
X142813820Y-93995002D01*
X142933518Y-94031312D01*
X143058000Y-94043572D01*
X143664207Y-94043572D01*
X143657774Y-94059102D01*
X143618000Y-94259061D01*
X143618000Y-94462939D01*
X143657774Y-94662898D01*
X143735795Y-94851256D01*
X143849063Y-95020774D01*
X143993226Y-95164937D01*
X144162744Y-95278205D01*
X144351102Y-95356226D01*
X144551061Y-95396000D01*
X144754939Y-95396000D01*
X144954898Y-95356226D01*
X145038000Y-95321804D01*
X145038000Y-97238531D01*
X145033719Y-97282000D01*
X145038000Y-97325469D01*
X145038000Y-97325476D01*
X145040267Y-97348489D01*
X145050805Y-97455490D01*
X145056819Y-97475314D01*
X145101411Y-97622312D01*
X145183589Y-97776058D01*
X145270534Y-97882001D01*
X137686582Y-97882001D01*
X136387514Y-96582934D01*
X136399680Y-96564727D01*
X136507853Y-96303574D01*
X136563000Y-96026335D01*
X136563000Y-95743665D01*
X136507853Y-95466426D01*
X136399680Y-95205273D01*
X136242637Y-94970241D01*
X136042759Y-94770363D01*
X135810241Y-94615000D01*
X136042759Y-94459637D01*
X136242637Y-94259759D01*
X136399680Y-94024727D01*
X136507853Y-93763574D01*
X136563000Y-93486335D01*
X136563000Y-93203665D01*
X136507853Y-92926426D01*
X136399680Y-92665273D01*
X136242637Y-92430241D01*
X136042759Y-92230363D01*
X135807727Y-92073320D01*
X135546574Y-91965147D01*
X135269335Y-91910000D01*
X134986665Y-91910000D01*
X134709426Y-91965147D01*
X134448273Y-92073320D01*
X134213241Y-92230363D01*
X134013363Y-92430241D01*
X133856320Y-92665273D01*
X133748147Y-92926426D01*
X133693000Y-93203665D01*
X133693000Y-93486335D01*
X133748147Y-93763574D01*
X133856320Y-94024727D01*
X134013363Y-94259759D01*
X134213241Y-94459637D01*
X134445759Y-94615000D01*
X134213241Y-94770363D01*
X134013363Y-94970241D01*
X133856320Y-95205273D01*
X133748147Y-95466426D01*
X133693000Y-95743665D01*
X133693000Y-96026335D01*
X133745447Y-96289999D01*
X128890553Y-96289999D01*
X128943000Y-96026335D01*
X128943000Y-95743665D01*
X128887853Y-95466426D01*
X128779680Y-95205273D01*
X128622637Y-94970241D01*
X128424039Y-94771643D01*
X128432482Y-94770812D01*
X128552180Y-94734502D01*
X128662494Y-94675537D01*
X128759185Y-94596185D01*
X128838537Y-94499494D01*
X128897502Y-94389180D01*
X128933812Y-94269482D01*
X128946072Y-94145000D01*
X128946072Y-92545000D01*
X128933812Y-92420518D01*
X128897502Y-92300820D01*
X128838537Y-92190506D01*
X128759185Y-92093815D01*
X128662494Y-92014463D01*
X128552180Y-91955498D01*
X128432482Y-91919188D01*
X128308000Y-91906928D01*
X126708000Y-91906928D01*
X126583518Y-91919188D01*
X126463820Y-91955498D01*
X126353506Y-92014463D01*
X126256815Y-92093815D01*
X126177463Y-92190506D01*
X126118498Y-92300820D01*
X126082188Y-92420518D01*
X126069928Y-92545000D01*
X126069928Y-94145000D01*
X126082188Y-94269482D01*
X126118498Y-94389180D01*
X126177463Y-94499494D01*
X126256815Y-94596185D01*
X126353506Y-94675537D01*
X126463820Y-94734502D01*
X126583518Y-94770812D01*
X126591961Y-94771643D01*
X126393363Y-94970241D01*
X126236320Y-95205273D01*
X126128147Y-95466426D01*
X126073000Y-95743665D01*
X126073000Y-96026335D01*
X126079983Y-96061439D01*
X125662955Y-96478467D01*
X125629182Y-96506184D01*
X125518588Y-96640943D01*
X125436410Y-96794689D01*
X125385804Y-96961512D01*
X125372999Y-97091525D01*
X125372999Y-97091532D01*
X125368718Y-97135001D01*
X125372999Y-97178470D01*
X125373000Y-102072522D01*
X125368718Y-102116001D01*
X125385804Y-102289491D01*
X125436411Y-102456314D01*
X125518589Y-102610060D01*
X125601467Y-102711047D01*
X125601470Y-102711050D01*
X125629183Y-102744818D01*
X125662950Y-102772530D01*
X127625468Y-104735049D01*
X127653181Y-104768817D01*
X127686949Y-104796530D01*
X127686951Y-104796532D01*
X127732105Y-104833589D01*
X127787939Y-104879411D01*
X127941685Y-104961589D01*
X128108508Y-105012195D01*
X128238521Y-105025000D01*
X128238529Y-105025000D01*
X128281998Y-105029281D01*
X128325467Y-105025000D01*
X128688768Y-105025000D01*
X128690000Y-105251250D01*
X128848750Y-105410000D01*
X130048000Y-105410000D01*
X130048000Y-105390000D01*
X130302000Y-105390000D01*
X130302000Y-105410000D01*
X130322000Y-105410000D01*
X130322000Y-105664000D01*
X130302000Y-105664000D01*
X130302000Y-106863250D01*
X130460750Y-107022000D01*
X131025000Y-107025072D01*
X131149482Y-107012812D01*
X131269180Y-106976502D01*
X131379494Y-106917537D01*
X131476185Y-106838185D01*
X131555537Y-106741494D01*
X131614502Y-106631180D01*
X131636513Y-106558620D01*
X131768368Y-106690475D01*
X132011589Y-106852990D01*
X132281842Y-106964932D01*
X132568740Y-107022000D01*
X132861260Y-107022000D01*
X133148158Y-106964932D01*
X133418411Y-106852990D01*
X133661632Y-106690475D01*
X133868475Y-106483632D01*
X134030990Y-106240411D01*
X134142932Y-105970158D01*
X134200000Y-105683260D01*
X134200000Y-105390740D01*
X134142932Y-105103842D01*
X134110275Y-105025000D01*
X138177725Y-105025000D01*
X138145068Y-105103842D01*
X138088000Y-105390740D01*
X138088000Y-105683260D01*
X138145068Y-105970158D01*
X138257010Y-106240411D01*
X138419525Y-106483632D01*
X138626368Y-106690475D01*
X138869589Y-106852990D01*
X139139842Y-106964932D01*
X139426740Y-107022000D01*
X139719260Y-107022000D01*
X140006158Y-106964932D01*
X140276411Y-106852990D01*
X140519632Y-106690475D01*
X140651487Y-106558620D01*
X140673498Y-106631180D01*
X140732463Y-106741494D01*
X140811815Y-106838185D01*
X140908506Y-106917537D01*
X141018820Y-106976502D01*
X141138518Y-107012812D01*
X141263000Y-107025072D01*
X141827250Y-107022000D01*
X141986000Y-106863250D01*
X141986000Y-105664000D01*
X142240000Y-105664000D01*
X142240000Y-106863250D01*
X142398750Y-107022000D01*
X142963000Y-107025072D01*
X143087482Y-107012812D01*
X143207180Y-106976502D01*
X143317494Y-106917537D01*
X143414185Y-106838185D01*
X143493537Y-106741494D01*
X143552502Y-106631180D01*
X143588812Y-106511482D01*
X143601072Y-106387000D01*
X143598000Y-105822750D01*
X143439250Y-105664000D01*
X142240000Y-105664000D01*
X141986000Y-105664000D01*
X141966000Y-105664000D01*
X141966000Y-105410000D01*
X141986000Y-105410000D01*
X141986000Y-105390000D01*
X142240000Y-105390000D01*
X142240000Y-105410000D01*
X143439250Y-105410000D01*
X143598000Y-105251250D01*
X143599232Y-105025000D01*
X151419031Y-105025000D01*
X151462500Y-105029281D01*
X151505969Y-105025000D01*
X151505977Y-105025000D01*
X151635990Y-105012195D01*
X151802813Y-104961589D01*
X151956559Y-104879411D01*
X152091317Y-104768817D01*
X152119034Y-104735044D01*
X152868050Y-103986029D01*
X152901817Y-103958317D01*
X152929533Y-103924546D01*
X153012410Y-103823560D01*
X153012411Y-103823559D01*
X153094589Y-103669813D01*
X153145195Y-103502990D01*
X153158000Y-103372977D01*
X153158000Y-103372967D01*
X153162281Y-103329501D01*
X153158000Y-103286035D01*
X153158000Y-103128873D01*
X153187502Y-103073680D01*
X153223812Y-102953982D01*
X153236072Y-102829500D01*
X153236072Y-100904500D01*
X153223812Y-100780018D01*
X153187502Y-100660320D01*
X153128537Y-100550006D01*
X153049185Y-100453315D01*
X152952494Y-100373963D01*
X152842180Y-100314998D01*
X152722482Y-100278688D01*
X152598000Y-100266428D01*
X151948000Y-100266428D01*
X151888000Y-100272337D01*
X151888000Y-96177080D01*
X153645001Y-94420080D01*
X153645000Y-107671000D01*
X120675000Y-107671000D01*
X120675000Y-106387000D01*
X128686928Y-106387000D01*
X128699188Y-106511482D01*
X128735498Y-106631180D01*
X128794463Y-106741494D01*
X128873815Y-106838185D01*
X128970506Y-106917537D01*
X129080820Y-106976502D01*
X129200518Y-107012812D01*
X129325000Y-107025072D01*
X129889250Y-107022000D01*
X130048000Y-106863250D01*
X130048000Y-105664000D01*
X128848750Y-105664000D01*
X128690000Y-105822750D01*
X128686928Y-106387000D01*
X120675000Y-106387000D01*
X120675000Y-96481000D01*
X121574928Y-96481000D01*
X121587188Y-96605482D01*
X121623498Y-96725180D01*
X121682463Y-96835494D01*
X121761815Y-96932185D01*
X121858506Y-97011537D01*
X121968820Y-97070502D01*
X122041380Y-97092513D01*
X121909525Y-97224368D01*
X121747010Y-97467589D01*
X121635068Y-97737842D01*
X121578000Y-98024740D01*
X121578000Y-98317260D01*
X121635068Y-98604158D01*
X121747010Y-98874411D01*
X121909525Y-99117632D01*
X122116368Y-99324475D01*
X122359589Y-99486990D01*
X122629842Y-99598932D01*
X122916740Y-99656000D01*
X123209260Y-99656000D01*
X123496158Y-99598932D01*
X123766411Y-99486990D01*
X124009632Y-99324475D01*
X124216475Y-99117632D01*
X124378990Y-98874411D01*
X124490932Y-98604158D01*
X124548000Y-98317260D01*
X124548000Y-98024740D01*
X124490932Y-97737842D01*
X124378990Y-97467589D01*
X124216475Y-97224368D01*
X124084620Y-97092513D01*
X124157180Y-97070502D01*
X124267494Y-97011537D01*
X124364185Y-96932185D01*
X124443537Y-96835494D01*
X124502502Y-96725180D01*
X124538812Y-96605482D01*
X124551072Y-96481000D01*
X124548000Y-95916750D01*
X124389250Y-95758000D01*
X123190000Y-95758000D01*
X123190000Y-95778000D01*
X122936000Y-95778000D01*
X122936000Y-95758000D01*
X121736750Y-95758000D01*
X121578000Y-95916750D01*
X121574928Y-96481000D01*
X120675000Y-96481000D01*
X120675000Y-94781000D01*
X121574928Y-94781000D01*
X121578000Y-95345250D01*
X121736750Y-95504000D01*
X122936000Y-95504000D01*
X122936000Y-94304750D01*
X123190000Y-94304750D01*
X123190000Y-95504000D01*
X124389250Y-95504000D01*
X124548000Y-95345250D01*
X124551072Y-94781000D01*
X124538812Y-94656518D01*
X124502502Y-94536820D01*
X124443537Y-94426506D01*
X124364185Y-94329815D01*
X124267494Y-94250463D01*
X124157180Y-94191498D01*
X124037482Y-94155188D01*
X123913000Y-94142928D01*
X123348750Y-94146000D01*
X123190000Y-94304750D01*
X122936000Y-94304750D01*
X122777250Y-94146000D01*
X122213000Y-94142928D01*
X122088518Y-94155188D01*
X121968820Y-94191498D01*
X121858506Y-94250463D01*
X121761815Y-94329815D01*
X121682463Y-94426506D01*
X121623498Y-94536820D01*
X121587188Y-94656518D01*
X121574928Y-94781000D01*
X120675000Y-94781000D01*
X120675000Y-88170419D01*
X120678193Y-88138000D01*
X120665450Y-88008617D01*
X120627710Y-87884207D01*
X120566425Y-87769550D01*
X120483948Y-87669052D01*
X120383450Y-87586575D01*
X120268793Y-87525290D01*
X120144383Y-87487550D01*
X120079402Y-87481150D01*
X120015000Y-87474807D01*
X119982581Y-87478000D01*
X118192893Y-87478000D01*
X117687567Y-87428452D01*
X117232536Y-87291070D01*
X116812859Y-87067924D01*
X116444514Y-86767510D01*
X116141535Y-86401271D01*
X115915462Y-85983158D01*
X115827620Y-85699386D01*
X120047419Y-85699386D01*
X120081108Y-85696068D01*
X120103524Y-85696068D01*
X120112689Y-85695105D01*
X120447715Y-85657525D01*
X120506216Y-85645090D01*
X120564903Y-85633470D01*
X120573706Y-85630744D01*
X120573707Y-85630744D01*
X120573710Y-85630743D01*
X120573712Y-85630742D01*
X120895052Y-85528808D01*
X120949977Y-85505267D01*
X121005342Y-85482448D01*
X121013448Y-85478064D01*
X121308873Y-85315652D01*
X121358218Y-85281865D01*
X121408056Y-85248753D01*
X121415156Y-85242879D01*
X121673410Y-85026178D01*
X121715254Y-84983448D01*
X121757709Y-84941289D01*
X121763533Y-84934147D01*
X121974778Y-84671411D01*
X122007516Y-84621382D01*
X122040984Y-84571764D01*
X122045310Y-84563628D01*
X122201499Y-84264864D01*
X122223898Y-84209422D01*
X122247088Y-84154258D01*
X122249751Y-84145436D01*
X122344936Y-83822026D01*
X122356140Y-83763293D01*
X122368174Y-83704669D01*
X122369073Y-83695498D01*
X122399628Y-83359759D01*
X122399210Y-83299941D01*
X122399628Y-83240124D01*
X122398729Y-83230953D01*
X122363490Y-82895673D01*
X122351463Y-82837086D01*
X122340253Y-82778316D01*
X122337589Y-82769494D01*
X122237898Y-82447444D01*
X122214710Y-82392281D01*
X122192308Y-82336835D01*
X122187982Y-82328699D01*
X122027636Y-82032145D01*
X121994179Y-81982544D01*
X121961431Y-81932499D01*
X121955607Y-81925358D01*
X121740714Y-81665597D01*
X121698295Y-81623473D01*
X121656415Y-81580707D01*
X121649314Y-81574833D01*
X121388060Y-81361760D01*
X121338236Y-81328657D01*
X121288880Y-81294862D01*
X121280773Y-81290479D01*
X120983108Y-81132207D01*
X120927804Y-81109413D01*
X120872820Y-81085846D01*
X120864017Y-81083121D01*
X120541278Y-80985681D01*
X120482598Y-80974062D01*
X120424088Y-80961625D01*
X120414923Y-80960662D01*
X120079405Y-80927764D01*
X120079402Y-80927764D01*
X120047419Y-80924614D01*
X115827992Y-80924614D01*
X115908931Y-80656534D01*
X116132079Y-80236854D01*
X116432490Y-79868514D01*
X116798730Y-79565535D01*
X117216838Y-79339464D01*
X117670899Y-79198909D01*
X118174298Y-79146000D01*
X119982581Y-79146000D01*
X120015000Y-79149193D01*
X120047419Y-79146000D01*
X120054984Y-79145255D01*
X120144383Y-79136450D01*
X120268793Y-79098710D01*
X120383450Y-79037425D01*
X120483948Y-78954948D01*
X120566425Y-78854450D01*
X120627710Y-78739793D01*
X120665450Y-78615383D01*
X120675000Y-78518419D01*
X120678193Y-78486000D01*
X120675000Y-78453581D01*
X120675000Y-75463000D01*
X153645000Y-75463000D01*
X153645001Y-78453571D01*
G37*
X153645001Y-78453571D02*
X153641807Y-78486000D01*
X153654550Y-78615383D01*
X153692290Y-78739793D01*
X153753575Y-78854450D01*
X153836052Y-78954948D01*
X153936550Y-79037425D01*
X154051207Y-79098710D01*
X154175617Y-79136450D01*
X154272581Y-79146000D01*
X154305000Y-79149193D01*
X154337419Y-79146000D01*
X156127107Y-79146000D01*
X156632433Y-79195548D01*
X157087466Y-79332931D01*
X157507146Y-79556079D01*
X157875486Y-79856490D01*
X158178465Y-80222730D01*
X158404536Y-80640838D01*
X158492379Y-80924614D01*
X154272581Y-80924614D01*
X154238892Y-80927932D01*
X154216476Y-80927932D01*
X154207311Y-80928895D01*
X153872285Y-80966475D01*
X153813792Y-80978909D01*
X153755096Y-80990530D01*
X153746293Y-80993256D01*
X153424948Y-81095192D01*
X153369962Y-81118759D01*
X153314658Y-81141553D01*
X153306552Y-81145936D01*
X153011126Y-81308348D01*
X152961790Y-81342129D01*
X152911944Y-81375246D01*
X152904844Y-81381121D01*
X152646590Y-81597822D01*
X152604746Y-81640552D01*
X152562291Y-81682711D01*
X152556467Y-81689853D01*
X152345222Y-81952589D01*
X152312506Y-82002584D01*
X152279016Y-82052235D01*
X152274690Y-82060372D01*
X152118501Y-82359135D01*
X152096086Y-82414617D01*
X152072912Y-82469743D01*
X152070249Y-82478565D01*
X151975064Y-82801974D01*
X151963863Y-82860693D01*
X151951826Y-82919330D01*
X151950927Y-82928501D01*
X151920372Y-83264241D01*
X151920790Y-83324058D01*
X151920372Y-83383876D01*
X151921271Y-83393047D01*
X151956511Y-83728327D01*
X151968530Y-83786877D01*
X151979747Y-83845684D01*
X151982411Y-83854506D01*
X152082102Y-84176556D01*
X152105283Y-84231701D01*
X152127692Y-84287165D01*
X152132018Y-84295302D01*
X152292364Y-84591855D01*
X152325831Y-84641471D01*
X152358569Y-84691501D01*
X152364393Y-84698642D01*
X152579286Y-84958403D01*
X152621742Y-85000563D01*
X152663586Y-85043293D01*
X152670686Y-85049167D01*
X152931941Y-85262240D01*
X152981747Y-85295331D01*
X153031120Y-85329138D01*
X153039227Y-85333521D01*
X153336892Y-85491793D01*
X153392196Y-85514587D01*
X153447180Y-85538154D01*
X153455984Y-85540879D01*
X153778722Y-85638319D01*
X153837395Y-85649936D01*
X153895912Y-85662375D01*
X153905077Y-85663338D01*
X154240595Y-85696236D01*
X154240598Y-85696236D01*
X154272581Y-85699386D01*
X158492008Y-85699386D01*
X158411070Y-85967464D01*
X158187924Y-86387141D01*
X157887510Y-86755486D01*
X157521271Y-87058465D01*
X157103158Y-87284538D01*
X156649102Y-87425091D01*
X156145702Y-87478000D01*
X154337419Y-87478000D01*
X154305000Y-87474807D01*
X154272581Y-87478000D01*
X154175617Y-87487550D01*
X154051207Y-87525290D01*
X153936550Y-87586575D01*
X153836052Y-87669052D01*
X153753575Y-87769550D01*
X153692290Y-87884207D01*
X153654550Y-88008617D01*
X153641807Y-88138000D01*
X153645001Y-88170429D01*
X153645001Y-90465920D01*
X147316000Y-84136920D01*
X147316000Y-77513469D01*
X147320281Y-77470000D01*
X147316000Y-77426531D01*
X147316000Y-77426523D01*
X147303195Y-77296510D01*
X147252589Y-77129687D01*
X147170411Y-76975941D01*
X147138819Y-76937446D01*
X147087532Y-76874953D01*
X147087530Y-76874951D01*
X147059817Y-76841183D01*
X147026049Y-76813470D01*
X146198534Y-75985956D01*
X146170817Y-75952183D01*
X146036059Y-75841589D01*
X145882313Y-75759411D01*
X145715490Y-75708805D01*
X145585477Y-75696000D01*
X145585469Y-75696000D01*
X145542000Y-75691719D01*
X145498531Y-75696000D01*
X140759469Y-75696000D01*
X140716000Y-75691719D01*
X140672531Y-75696000D01*
X140672523Y-75696000D01*
X140557306Y-75707348D01*
X140542509Y-75708805D01*
X140491903Y-75724157D01*
X140375687Y-75759411D01*
X140221941Y-75841589D01*
X140221939Y-75841590D01*
X140221940Y-75841590D01*
X140120953Y-75924468D01*
X140120951Y-75924470D01*
X140087183Y-75952183D01*
X140059470Y-75985951D01*
X139130636Y-76914786D01*
X139075930Y-76937446D01*
X138860143Y-77081631D01*
X138676631Y-77265143D01*
X138532446Y-77480930D01*
X138433131Y-77720699D01*
X138430000Y-77736440D01*
X138426869Y-77720699D01*
X138327554Y-77480930D01*
X138183369Y-77265143D01*
X137999857Y-77081631D01*
X137784070Y-76937446D01*
X137544301Y-76838131D01*
X137289762Y-76787500D01*
X137030238Y-76787500D01*
X136775699Y-76838131D01*
X136535930Y-76937446D01*
X136320143Y-77081631D01*
X136136631Y-77265143D01*
X135992446Y-77480930D01*
X135893131Y-77720699D01*
X135890000Y-77736440D01*
X135886869Y-77720699D01*
X135787554Y-77480930D01*
X135643369Y-77265143D01*
X135459857Y-77081631D01*
X135244070Y-76937446D01*
X135004301Y-76838131D01*
X134749762Y-76787500D01*
X134490238Y-76787500D01*
X134235699Y-76838131D01*
X133995930Y-76937446D01*
X133780143Y-77081631D01*
X133596631Y-77265143D01*
X133452446Y-77480930D01*
X133353131Y-77720699D01*
X133350000Y-77736440D01*
X133346869Y-77720699D01*
X133247554Y-77480930D01*
X133103369Y-77265143D01*
X132919857Y-77081631D01*
X132704070Y-76937446D01*
X132464301Y-76838131D01*
X132209762Y-76787500D01*
X131950238Y-76787500D01*
X131695699Y-76838131D01*
X131455930Y-76937446D01*
X131240143Y-77081631D01*
X131056631Y-77265143D01*
X130912446Y-77480930D01*
X130860572Y-77606166D01*
X130860572Y-77422500D01*
X130848312Y-77298018D01*
X130812002Y-77178320D01*
X130753037Y-77068006D01*
X130673685Y-76971315D01*
X130576994Y-76891963D01*
X130466680Y-76832998D01*
X130346982Y-76796688D01*
X130222500Y-76784428D01*
X128857500Y-76784428D01*
X128733018Y-76796688D01*
X128613320Y-76832998D01*
X128503006Y-76891963D01*
X128406315Y-76971315D01*
X128326963Y-77068006D01*
X128267998Y-77178320D01*
X128231688Y-77298018D01*
X128219428Y-77422500D01*
X128219428Y-78787500D01*
X128231688Y-78911982D01*
X128267998Y-79031680D01*
X128326963Y-79141994D01*
X128406315Y-79238685D01*
X128503006Y-79318037D01*
X128613320Y-79377002D01*
X128733018Y-79413312D01*
X128857500Y-79425572D01*
X130222500Y-79425572D01*
X130346982Y-79413312D01*
X130466680Y-79377002D01*
X130576994Y-79318037D01*
X130673685Y-79238685D01*
X130753037Y-79141994D01*
X130812002Y-79031680D01*
X130848312Y-78911982D01*
X130860572Y-78787500D01*
X130860572Y-78603834D01*
X130912446Y-78729070D01*
X131056631Y-78944857D01*
X131240143Y-79128369D01*
X131455930Y-79272554D01*
X131695699Y-79371869D01*
X131950238Y-79422500D01*
X132209762Y-79422500D01*
X132464301Y-79371869D01*
X132704070Y-79272554D01*
X132919857Y-79128369D01*
X133103369Y-78944857D01*
X133247554Y-78729070D01*
X133346869Y-78489301D01*
X133350000Y-78473560D01*
X133353131Y-78489301D01*
X133452446Y-78729070D01*
X133596631Y-78944857D01*
X133780143Y-79128369D01*
X133995930Y-79272554D01*
X134235699Y-79371869D01*
X134490238Y-79422500D01*
X134749762Y-79422500D01*
X135004301Y-79371869D01*
X135244070Y-79272554D01*
X135459857Y-79128369D01*
X135643369Y-78944857D01*
X135787554Y-78729070D01*
X135886869Y-78489301D01*
X135890000Y-78473560D01*
X135893131Y-78489301D01*
X135992446Y-78729070D01*
X136136631Y-78944857D01*
X136320143Y-79128369D01*
X136535930Y-79272554D01*
X136775699Y-79371869D01*
X137030238Y-79422500D01*
X137225922Y-79422500D01*
X138688001Y-80884580D01*
X138688001Y-85330781D01*
X138658939Y-85325000D01*
X138455061Y-85325000D01*
X138255102Y-85364774D01*
X138066744Y-85442795D01*
X138018546Y-85475000D01*
X128948469Y-85475000D01*
X128905000Y-85470719D01*
X128861531Y-85475000D01*
X128861523Y-85475000D01*
X128731510Y-85487805D01*
X128564687Y-85538411D01*
X128431732Y-85609476D01*
X128410941Y-85620589D01*
X128309953Y-85703468D01*
X128309951Y-85703470D01*
X128276183Y-85731183D01*
X128248470Y-85764951D01*
X127065922Y-86947500D01*
X126870238Y-86947500D01*
X126615699Y-86998131D01*
X126375930Y-87097446D01*
X126160143Y-87241631D01*
X125976631Y-87425143D01*
X125832446Y-87640930D01*
X125733131Y-87880699D01*
X125682500Y-88135238D01*
X125682500Y-88394762D01*
X125733131Y-88649301D01*
X125832446Y-88889070D01*
X125976631Y-89104857D01*
X126160143Y-89288369D01*
X126375930Y-89432554D01*
X126615699Y-89531869D01*
X126870238Y-89582500D01*
X127129762Y-89582500D01*
X127384301Y-89531869D01*
X127624070Y-89432554D01*
X127839857Y-89288369D01*
X128023369Y-89104857D01*
X128167554Y-88889070D01*
X128266869Y-88649301D01*
X128270000Y-88633560D01*
X128273131Y-88649301D01*
X128372446Y-88889070D01*
X128516631Y-89104857D01*
X128700143Y-89288369D01*
X128915930Y-89432554D01*
X129155699Y-89531869D01*
X129410238Y-89582500D01*
X129669762Y-89582500D01*
X129924301Y-89531869D01*
X130164070Y-89432554D01*
X130379857Y-89288369D01*
X130563369Y-89104857D01*
X130707554Y-88889070D01*
X130806869Y-88649301D01*
X130857500Y-88394762D01*
X130857500Y-88135238D01*
X130806869Y-87880699D01*
X130707554Y-87640930D01*
X130563369Y-87425143D01*
X130383226Y-87245000D01*
X133776774Y-87245000D01*
X133596631Y-87425143D01*
X133452446Y-87640930D01*
X133353131Y-87880699D01*
X133302500Y-88135238D01*
X133302500Y-88394762D01*
X133353131Y-88649301D01*
X133452446Y-88889070D01*
X133596631Y-89104857D01*
X133780143Y-89288369D01*
X133995930Y-89432554D01*
X134235699Y-89531869D01*
X134490238Y-89582500D01*
X134749762Y-89582500D01*
X135004301Y-89531869D01*
X135244070Y-89432554D01*
X135459857Y-89288369D01*
X135643369Y-89104857D01*
X135787554Y-88889070D01*
X135886869Y-88649301D01*
X135890000Y-88633560D01*
X135893131Y-88649301D01*
X135992446Y-88889070D01*
X136136631Y-89104857D01*
X136320143Y-89288369D01*
X136535930Y-89432554D01*
X136775699Y-89531869D01*
X137030238Y-89582500D01*
X137289762Y-89582500D01*
X137544301Y-89531869D01*
X137784070Y-89432554D01*
X137999857Y-89288369D01*
X138183369Y-89104857D01*
X138327554Y-88889070D01*
X138426869Y-88649301D01*
X138477500Y-88394762D01*
X138477500Y-88135238D01*
X138426869Y-87880699D01*
X138327554Y-87640930D01*
X138183369Y-87425143D01*
X138003226Y-87245000D01*
X138018546Y-87245000D01*
X138066744Y-87277205D01*
X138255102Y-87355226D01*
X138455061Y-87395000D01*
X138658939Y-87395000D01*
X138688000Y-87389219D01*
X138688000Y-90848337D01*
X138628000Y-90842428D01*
X137978000Y-90842428D01*
X137853518Y-90854688D01*
X137733820Y-90890998D01*
X137623506Y-90949963D01*
X137526815Y-91029315D01*
X137447463Y-91126006D01*
X137388498Y-91236320D01*
X137352188Y-91356018D01*
X137339928Y-91480500D01*
X137339928Y-93405500D01*
X137352188Y-93529982D01*
X137388498Y-93649680D01*
X137447463Y-93759994D01*
X137526815Y-93856685D01*
X137623506Y-93936037D01*
X137733820Y-93995002D01*
X137853518Y-94031312D01*
X137978000Y-94043572D01*
X138628000Y-94043572D01*
X138752482Y-94031312D01*
X138872180Y-93995002D01*
X138938000Y-93959820D01*
X139003820Y-93995002D01*
X139123518Y-94031312D01*
X139248000Y-94043572D01*
X139898000Y-94043572D01*
X140022482Y-94031312D01*
X140142180Y-93995002D01*
X140208000Y-93959820D01*
X140273820Y-93995002D01*
X140393518Y-94031312D01*
X140518000Y-94043572D01*
X141168000Y-94043572D01*
X141292482Y-94031312D01*
X141412180Y-93995002D01*
X141478000Y-93959820D01*
X141543820Y-93995002D01*
X141663518Y-94031312D01*
X141788000Y-94043572D01*
X142438000Y-94043572D01*
X142562482Y-94031312D01*
X142682180Y-93995002D01*
X142748000Y-93959820D01*
X142813820Y-93995002D01*
X142933518Y-94031312D01*
X143058000Y-94043572D01*
X143664207Y-94043572D01*
X143657774Y-94059102D01*
X143618000Y-94259061D01*
X143618000Y-94462939D01*
X143657774Y-94662898D01*
X143735795Y-94851256D01*
X143849063Y-95020774D01*
X143993226Y-95164937D01*
X144162744Y-95278205D01*
X144351102Y-95356226D01*
X144551061Y-95396000D01*
X144754939Y-95396000D01*
X144954898Y-95356226D01*
X145038000Y-95321804D01*
X145038000Y-97238531D01*
X145033719Y-97282000D01*
X145038000Y-97325469D01*
X145038000Y-97325476D01*
X145040267Y-97348489D01*
X145050805Y-97455490D01*
X145056819Y-97475314D01*
X145101411Y-97622312D01*
X145183589Y-97776058D01*
X145270534Y-97882001D01*
X137686582Y-97882001D01*
X136387514Y-96582934D01*
X136399680Y-96564727D01*
X136507853Y-96303574D01*
X136563000Y-96026335D01*
X136563000Y-95743665D01*
X136507853Y-95466426D01*
X136399680Y-95205273D01*
X136242637Y-94970241D01*
X136042759Y-94770363D01*
X135810241Y-94615000D01*
X136042759Y-94459637D01*
X136242637Y-94259759D01*
X136399680Y-94024727D01*
X136507853Y-93763574D01*
X136563000Y-93486335D01*
X136563000Y-93203665D01*
X136507853Y-92926426D01*
X136399680Y-92665273D01*
X136242637Y-92430241D01*
X136042759Y-92230363D01*
X135807727Y-92073320D01*
X135546574Y-91965147D01*
X135269335Y-91910000D01*
X134986665Y-91910000D01*
X134709426Y-91965147D01*
X134448273Y-92073320D01*
X134213241Y-92230363D01*
X134013363Y-92430241D01*
X133856320Y-92665273D01*
X133748147Y-92926426D01*
X133693000Y-93203665D01*
X133693000Y-93486335D01*
X133748147Y-93763574D01*
X133856320Y-94024727D01*
X134013363Y-94259759D01*
X134213241Y-94459637D01*
X134445759Y-94615000D01*
X134213241Y-94770363D01*
X134013363Y-94970241D01*
X133856320Y-95205273D01*
X133748147Y-95466426D01*
X133693000Y-95743665D01*
X133693000Y-96026335D01*
X133745447Y-96289999D01*
X128890553Y-96289999D01*
X128943000Y-96026335D01*
X128943000Y-95743665D01*
X128887853Y-95466426D01*
X128779680Y-95205273D01*
X128622637Y-94970241D01*
X128424039Y-94771643D01*
X128432482Y-94770812D01*
X128552180Y-94734502D01*
X128662494Y-94675537D01*
X128759185Y-94596185D01*
X128838537Y-94499494D01*
X128897502Y-94389180D01*
X128933812Y-94269482D01*
X128946072Y-94145000D01*
X128946072Y-92545000D01*
X128933812Y-92420518D01*
X128897502Y-92300820D01*
X128838537Y-92190506D01*
X128759185Y-92093815D01*
X128662494Y-92014463D01*
X128552180Y-91955498D01*
X128432482Y-91919188D01*
X128308000Y-91906928D01*
X126708000Y-91906928D01*
X126583518Y-91919188D01*
X126463820Y-91955498D01*
X126353506Y-92014463D01*
X126256815Y-92093815D01*
X126177463Y-92190506D01*
X126118498Y-92300820D01*
X126082188Y-92420518D01*
X126069928Y-92545000D01*
X126069928Y-94145000D01*
X126082188Y-94269482D01*
X126118498Y-94389180D01*
X126177463Y-94499494D01*
X126256815Y-94596185D01*
X126353506Y-94675537D01*
X126463820Y-94734502D01*
X126583518Y-94770812D01*
X126591961Y-94771643D01*
X126393363Y-94970241D01*
X126236320Y-95205273D01*
X126128147Y-95466426D01*
X126073000Y-95743665D01*
X126073000Y-96026335D01*
X126079983Y-96061439D01*
X125662955Y-96478467D01*
X125629182Y-96506184D01*
X125518588Y-96640943D01*
X125436410Y-96794689D01*
X125385804Y-96961512D01*
X125372999Y-97091525D01*
X125372999Y-97091532D01*
X125368718Y-97135001D01*
X125372999Y-97178470D01*
X125373000Y-102072522D01*
X125368718Y-102116001D01*
X125385804Y-102289491D01*
X125436411Y-102456314D01*
X125518589Y-102610060D01*
X125601467Y-102711047D01*
X125601470Y-102711050D01*
X125629183Y-102744818D01*
X125662950Y-102772530D01*
X127625468Y-104735049D01*
X127653181Y-104768817D01*
X127686949Y-104796530D01*
X127686951Y-104796532D01*
X127732105Y-104833589D01*
X127787939Y-104879411D01*
X127941685Y-104961589D01*
X128108508Y-105012195D01*
X128238521Y-105025000D01*
X128238529Y-105025000D01*
X128281998Y-105029281D01*
X128325467Y-105025000D01*
X128688768Y-105025000D01*
X128690000Y-105251250D01*
X128848750Y-105410000D01*
X130048000Y-105410000D01*
X130048000Y-105390000D01*
X130302000Y-105390000D01*
X130302000Y-105410000D01*
X130322000Y-105410000D01*
X130322000Y-105664000D01*
X130302000Y-105664000D01*
X130302000Y-106863250D01*
X130460750Y-107022000D01*
X131025000Y-107025072D01*
X131149482Y-107012812D01*
X131269180Y-106976502D01*
X131379494Y-106917537D01*
X131476185Y-106838185D01*
X131555537Y-106741494D01*
X131614502Y-106631180D01*
X131636513Y-106558620D01*
X131768368Y-106690475D01*
X132011589Y-106852990D01*
X132281842Y-106964932D01*
X132568740Y-107022000D01*
X132861260Y-107022000D01*
X133148158Y-106964932D01*
X133418411Y-106852990D01*
X133661632Y-106690475D01*
X133868475Y-106483632D01*
X134030990Y-106240411D01*
X134142932Y-105970158D01*
X134200000Y-105683260D01*
X134200000Y-105390740D01*
X134142932Y-105103842D01*
X134110275Y-105025000D01*
X138177725Y-105025000D01*
X138145068Y-105103842D01*
X138088000Y-105390740D01*
X138088000Y-105683260D01*
X138145068Y-105970158D01*
X138257010Y-106240411D01*
X138419525Y-106483632D01*
X138626368Y-106690475D01*
X138869589Y-106852990D01*
X139139842Y-106964932D01*
X139426740Y-107022000D01*
X139719260Y-107022000D01*
X140006158Y-106964932D01*
X140276411Y-106852990D01*
X140519632Y-106690475D01*
X140651487Y-106558620D01*
X140673498Y-106631180D01*
X140732463Y-106741494D01*
X140811815Y-106838185D01*
X140908506Y-106917537D01*
X141018820Y-106976502D01*
X141138518Y-107012812D01*
X141263000Y-107025072D01*
X141827250Y-107022000D01*
X141986000Y-106863250D01*
X141986000Y-105664000D01*
X142240000Y-105664000D01*
X142240000Y-106863250D01*
X142398750Y-107022000D01*
X142963000Y-107025072D01*
X143087482Y-107012812D01*
X143207180Y-106976502D01*
X143317494Y-106917537D01*
X143414185Y-106838185D01*
X143493537Y-106741494D01*
X143552502Y-106631180D01*
X143588812Y-106511482D01*
X143601072Y-106387000D01*
X143598000Y-105822750D01*
X143439250Y-105664000D01*
X142240000Y-105664000D01*
X141986000Y-105664000D01*
X141966000Y-105664000D01*
X141966000Y-105410000D01*
X141986000Y-105410000D01*
X141986000Y-105390000D01*
X142240000Y-105390000D01*
X142240000Y-105410000D01*
X143439250Y-105410000D01*
X143598000Y-105251250D01*
X143599232Y-105025000D01*
X151419031Y-105025000D01*
X151462500Y-105029281D01*
X151505969Y-105025000D01*
X151505977Y-105025000D01*
X151635990Y-105012195D01*
X151802813Y-104961589D01*
X151956559Y-104879411D01*
X152091317Y-104768817D01*
X152119034Y-104735044D01*
X152868050Y-103986029D01*
X152901817Y-103958317D01*
X152929533Y-103924546D01*
X153012410Y-103823560D01*
X153012411Y-103823559D01*
X153094589Y-103669813D01*
X153145195Y-103502990D01*
X153158000Y-103372977D01*
X153158000Y-103372967D01*
X153162281Y-103329501D01*
X153158000Y-103286035D01*
X153158000Y-103128873D01*
X153187502Y-103073680D01*
X153223812Y-102953982D01*
X153236072Y-102829500D01*
X153236072Y-100904500D01*
X153223812Y-100780018D01*
X153187502Y-100660320D01*
X153128537Y-100550006D01*
X153049185Y-100453315D01*
X152952494Y-100373963D01*
X152842180Y-100314998D01*
X152722482Y-100278688D01*
X152598000Y-100266428D01*
X151948000Y-100266428D01*
X151888000Y-100272337D01*
X151888000Y-96177080D01*
X153645001Y-94420080D01*
X153645000Y-107671000D01*
X120675000Y-107671000D01*
X120675000Y-106387000D01*
X128686928Y-106387000D01*
X128699188Y-106511482D01*
X128735498Y-106631180D01*
X128794463Y-106741494D01*
X128873815Y-106838185D01*
X128970506Y-106917537D01*
X129080820Y-106976502D01*
X129200518Y-107012812D01*
X129325000Y-107025072D01*
X129889250Y-107022000D01*
X130048000Y-106863250D01*
X130048000Y-105664000D01*
X128848750Y-105664000D01*
X128690000Y-105822750D01*
X128686928Y-106387000D01*
X120675000Y-106387000D01*
X120675000Y-96481000D01*
X121574928Y-96481000D01*
X121587188Y-96605482D01*
X121623498Y-96725180D01*
X121682463Y-96835494D01*
X121761815Y-96932185D01*
X121858506Y-97011537D01*
X121968820Y-97070502D01*
X122041380Y-97092513D01*
X121909525Y-97224368D01*
X121747010Y-97467589D01*
X121635068Y-97737842D01*
X121578000Y-98024740D01*
X121578000Y-98317260D01*
X121635068Y-98604158D01*
X121747010Y-98874411D01*
X121909525Y-99117632D01*
X122116368Y-99324475D01*
X122359589Y-99486990D01*
X122629842Y-99598932D01*
X122916740Y-99656000D01*
X123209260Y-99656000D01*
X123496158Y-99598932D01*
X123766411Y-99486990D01*
X124009632Y-99324475D01*
X124216475Y-99117632D01*
X124378990Y-98874411D01*
X124490932Y-98604158D01*
X124548000Y-98317260D01*
X124548000Y-98024740D01*
X124490932Y-97737842D01*
X124378990Y-97467589D01*
X124216475Y-97224368D01*
X124084620Y-97092513D01*
X124157180Y-97070502D01*
X124267494Y-97011537D01*
X124364185Y-96932185D01*
X124443537Y-96835494D01*
X124502502Y-96725180D01*
X124538812Y-96605482D01*
X124551072Y-96481000D01*
X124548000Y-95916750D01*
X124389250Y-95758000D01*
X123190000Y-95758000D01*
X123190000Y-95778000D01*
X122936000Y-95778000D01*
X122936000Y-95758000D01*
X121736750Y-95758000D01*
X121578000Y-95916750D01*
X121574928Y-96481000D01*
X120675000Y-96481000D01*
X120675000Y-94781000D01*
X121574928Y-94781000D01*
X121578000Y-95345250D01*
X121736750Y-95504000D01*
X122936000Y-95504000D01*
X122936000Y-94304750D01*
X123190000Y-94304750D01*
X123190000Y-95504000D01*
X124389250Y-95504000D01*
X124548000Y-95345250D01*
X124551072Y-94781000D01*
X124538812Y-94656518D01*
X124502502Y-94536820D01*
X124443537Y-94426506D01*
X124364185Y-94329815D01*
X124267494Y-94250463D01*
X124157180Y-94191498D01*
X124037482Y-94155188D01*
X123913000Y-94142928D01*
X123348750Y-94146000D01*
X123190000Y-94304750D01*
X122936000Y-94304750D01*
X122777250Y-94146000D01*
X122213000Y-94142928D01*
X122088518Y-94155188D01*
X121968820Y-94191498D01*
X121858506Y-94250463D01*
X121761815Y-94329815D01*
X121682463Y-94426506D01*
X121623498Y-94536820D01*
X121587188Y-94656518D01*
X121574928Y-94781000D01*
X120675000Y-94781000D01*
X120675000Y-88170419D01*
X120678193Y-88138000D01*
X120665450Y-88008617D01*
X120627710Y-87884207D01*
X120566425Y-87769550D01*
X120483948Y-87669052D01*
X120383450Y-87586575D01*
X120268793Y-87525290D01*
X120144383Y-87487550D01*
X120079402Y-87481150D01*
X120015000Y-87474807D01*
X119982581Y-87478000D01*
X118192893Y-87478000D01*
X117687567Y-87428452D01*
X117232536Y-87291070D01*
X116812859Y-87067924D01*
X116444514Y-86767510D01*
X116141535Y-86401271D01*
X115915462Y-85983158D01*
X115827620Y-85699386D01*
X120047419Y-85699386D01*
X120081108Y-85696068D01*
X120103524Y-85696068D01*
X120112689Y-85695105D01*
X120447715Y-85657525D01*
X120506216Y-85645090D01*
X120564903Y-85633470D01*
X120573706Y-85630744D01*
X120573707Y-85630744D01*
X120573710Y-85630743D01*
X120573712Y-85630742D01*
X120895052Y-85528808D01*
X120949977Y-85505267D01*
X121005342Y-85482448D01*
X121013448Y-85478064D01*
X121308873Y-85315652D01*
X121358218Y-85281865D01*
X121408056Y-85248753D01*
X121415156Y-85242879D01*
X121673410Y-85026178D01*
X121715254Y-84983448D01*
X121757709Y-84941289D01*
X121763533Y-84934147D01*
X121974778Y-84671411D01*
X122007516Y-84621382D01*
X122040984Y-84571764D01*
X122045310Y-84563628D01*
X122201499Y-84264864D01*
X122223898Y-84209422D01*
X122247088Y-84154258D01*
X122249751Y-84145436D01*
X122344936Y-83822026D01*
X122356140Y-83763293D01*
X122368174Y-83704669D01*
X122369073Y-83695498D01*
X122399628Y-83359759D01*
X122399210Y-83299941D01*
X122399628Y-83240124D01*
X122398729Y-83230953D01*
X122363490Y-82895673D01*
X122351463Y-82837086D01*
X122340253Y-82778316D01*
X122337589Y-82769494D01*
X122237898Y-82447444D01*
X122214710Y-82392281D01*
X122192308Y-82336835D01*
X122187982Y-82328699D01*
X122027636Y-82032145D01*
X121994179Y-81982544D01*
X121961431Y-81932499D01*
X121955607Y-81925358D01*
X121740714Y-81665597D01*
X121698295Y-81623473D01*
X121656415Y-81580707D01*
X121649314Y-81574833D01*
X121388060Y-81361760D01*
X121338236Y-81328657D01*
X121288880Y-81294862D01*
X121280773Y-81290479D01*
X120983108Y-81132207D01*
X120927804Y-81109413D01*
X120872820Y-81085846D01*
X120864017Y-81083121D01*
X120541278Y-80985681D01*
X120482598Y-80974062D01*
X120424088Y-80961625D01*
X120414923Y-80960662D01*
X120079405Y-80927764D01*
X120079402Y-80927764D01*
X120047419Y-80924614D01*
X115827992Y-80924614D01*
X115908931Y-80656534D01*
X116132079Y-80236854D01*
X116432490Y-79868514D01*
X116798730Y-79565535D01*
X117216838Y-79339464D01*
X117670899Y-79198909D01*
X118174298Y-79146000D01*
X119982581Y-79146000D01*
X120015000Y-79149193D01*
X120047419Y-79146000D01*
X120054984Y-79145255D01*
X120144383Y-79136450D01*
X120268793Y-79098710D01*
X120383450Y-79037425D01*
X120483948Y-78954948D01*
X120566425Y-78854450D01*
X120627710Y-78739793D01*
X120665450Y-78615383D01*
X120675000Y-78518419D01*
X120678193Y-78486000D01*
X120675000Y-78453581D01*
X120675000Y-75463000D01*
X153645000Y-75463000D01*
X153645001Y-78453571D01*
G36*
X133693000Y-98283665D02*
G01*
X133693000Y-98566335D01*
X133748147Y-98843574D01*
X133856320Y-99104727D01*
X134013363Y-99339759D01*
X134213241Y-99539637D01*
X134445759Y-99695000D01*
X134213241Y-99850363D01*
X134013363Y-100050241D01*
X133856320Y-100285273D01*
X133748147Y-100546426D01*
X133693000Y-100823665D01*
X133693000Y-101106335D01*
X133748147Y-101383574D01*
X133856320Y-101644727D01*
X134013363Y-101879759D01*
X134213241Y-102079637D01*
X134448273Y-102236680D01*
X134709426Y-102344853D01*
X134986665Y-102400000D01*
X135269335Y-102400000D01*
X135546574Y-102344853D01*
X135807727Y-102236680D01*
X136042759Y-102079637D01*
X136242637Y-101879759D01*
X136399680Y-101644727D01*
X136507853Y-101383574D01*
X136562130Y-101110709D01*
X137339928Y-101888507D01*
X137339928Y-102511999D01*
X130098722Y-102511999D01*
X130072776Y-102486053D01*
X129903258Y-102372785D01*
X129714900Y-102294764D01*
X129514941Y-102254990D01*
X129311063Y-102254990D01*
X129111104Y-102294764D01*
X128922746Y-102372785D01*
X128753228Y-102486053D01*
X128609065Y-102630216D01*
X128495797Y-102799734D01*
X128417776Y-102988092D01*
X128411785Y-103018209D01*
X127635002Y-102241426D01*
X127635002Y-102235625D01*
X127857040Y-102356909D01*
X128121881Y-102262070D01*
X128363131Y-102117385D01*
X128571519Y-101928414D01*
X128739037Y-101702420D01*
X128859246Y-101448087D01*
X128899904Y-101314039D01*
X128777915Y-101092000D01*
X127635000Y-101092000D01*
X127635000Y-101112000D01*
X127381000Y-101112000D01*
X127381000Y-101092000D01*
X127361000Y-101092000D01*
X127361000Y-100838000D01*
X127381000Y-100838000D01*
X127381000Y-100818000D01*
X127635000Y-100818000D01*
X127635000Y-100838000D01*
X128777915Y-100838000D01*
X128899904Y-100615961D01*
X128859246Y-100481913D01*
X128739037Y-100227580D01*
X128571519Y-100001586D01*
X128363131Y-99812615D01*
X128177135Y-99701067D01*
X128187727Y-99696680D01*
X128422759Y-99539637D01*
X128622637Y-99339759D01*
X128779680Y-99104727D01*
X128887853Y-98843574D01*
X128943000Y-98566335D01*
X128943000Y-98283665D01*
X128936017Y-98248561D01*
X129124580Y-98059999D01*
X133737491Y-98059999D01*
X133693000Y-98283665D01*
G37*
X133693000Y-98283665D02*
X133693000Y-98566335D01*
X133748147Y-98843574D01*
X133856320Y-99104727D01*
X134013363Y-99339759D01*
X134213241Y-99539637D01*
X134445759Y-99695000D01*
X134213241Y-99850363D01*
X134013363Y-100050241D01*
X133856320Y-100285273D01*
X133748147Y-100546426D01*
X133693000Y-100823665D01*
X133693000Y-101106335D01*
X133748147Y-101383574D01*
X133856320Y-101644727D01*
X134013363Y-101879759D01*
X134213241Y-102079637D01*
X134448273Y-102236680D01*
X134709426Y-102344853D01*
X134986665Y-102400000D01*
X135269335Y-102400000D01*
X135546574Y-102344853D01*
X135807727Y-102236680D01*
X136042759Y-102079637D01*
X136242637Y-101879759D01*
X136399680Y-101644727D01*
X136507853Y-101383574D01*
X136562130Y-101110709D01*
X137339928Y-101888507D01*
X137339928Y-102511999D01*
X130098722Y-102511999D01*
X130072776Y-102486053D01*
X129903258Y-102372785D01*
X129714900Y-102294764D01*
X129514941Y-102254990D01*
X129311063Y-102254990D01*
X129111104Y-102294764D01*
X128922746Y-102372785D01*
X128753228Y-102486053D01*
X128609065Y-102630216D01*
X128495797Y-102799734D01*
X128417776Y-102988092D01*
X128411785Y-103018209D01*
X127635002Y-102241426D01*
X127635002Y-102235625D01*
X127857040Y-102356909D01*
X128121881Y-102262070D01*
X128363131Y-102117385D01*
X128571519Y-101928414D01*
X128739037Y-101702420D01*
X128859246Y-101448087D01*
X128899904Y-101314039D01*
X128777915Y-101092000D01*
X127635000Y-101092000D01*
X127635000Y-101112000D01*
X127381000Y-101112000D01*
X127381000Y-101092000D01*
X127361000Y-101092000D01*
X127361000Y-100838000D01*
X127381000Y-100838000D01*
X127381000Y-100818000D01*
X127635000Y-100818000D01*
X127635000Y-100838000D01*
X128777915Y-100838000D01*
X128899904Y-100615961D01*
X128859246Y-100481913D01*
X128739037Y-100227580D01*
X128571519Y-100001586D01*
X128363131Y-99812615D01*
X128177135Y-99701067D01*
X128187727Y-99696680D01*
X128422759Y-99539637D01*
X128622637Y-99339759D01*
X128779680Y-99104727D01*
X128887853Y-98843574D01*
X128943000Y-98566335D01*
X128943000Y-98283665D01*
X128936017Y-98248561D01*
X129124580Y-98059999D01*
X133737491Y-98059999D01*
X133693000Y-98283665D01*
G36*
X150118000Y-100272337D02*
G01*
X150058000Y-100266428D01*
X149408000Y-100266428D01*
X149283518Y-100278688D01*
X149163820Y-100314998D01*
X149098000Y-100350180D01*
X149032180Y-100314998D01*
X148912482Y-100278688D01*
X148788000Y-100266428D01*
X148748750Y-100269500D01*
X148590000Y-100428250D01*
X148590000Y-101740000D01*
X148610000Y-101740000D01*
X148610000Y-101994000D01*
X148590000Y-101994000D01*
X148590000Y-102014000D01*
X148336000Y-102014000D01*
X148336000Y-101994000D01*
X148316000Y-101994000D01*
X148316000Y-101740000D01*
X148336000Y-101740000D01*
X148336000Y-100428250D01*
X148177250Y-100269500D01*
X148138000Y-100266428D01*
X148013518Y-100278688D01*
X147893820Y-100314998D01*
X147828000Y-100350180D01*
X147762180Y-100314998D01*
X147642482Y-100278688D01*
X147518000Y-100266428D01*
X146868000Y-100266428D01*
X146743518Y-100278688D01*
X146623820Y-100314998D01*
X146558000Y-100350180D01*
X146492180Y-100314998D01*
X146372482Y-100278688D01*
X146248000Y-100266428D01*
X145641793Y-100266428D01*
X145648226Y-100250898D01*
X145688000Y-100050939D01*
X145688000Y-99847061D01*
X145649200Y-99652001D01*
X146922532Y-99652001D01*
X146966001Y-99656282D01*
X147009470Y-99652001D01*
X147009478Y-99652001D01*
X147139491Y-99639196D01*
X147306314Y-99588590D01*
X147460060Y-99506412D01*
X147594818Y-99395818D01*
X147622535Y-99362045D01*
X150118001Y-96866580D01*
X150118000Y-100272337D01*
G37*
X150118000Y-100272337D02*
X150058000Y-100266428D01*
X149408000Y-100266428D01*
X149283518Y-100278688D01*
X149163820Y-100314998D01*
X149098000Y-100350180D01*
X149032180Y-100314998D01*
X148912482Y-100278688D01*
X148788000Y-100266428D01*
X148748750Y-100269500D01*
X148590000Y-100428250D01*
X148590000Y-101740000D01*
X148610000Y-101740000D01*
X148610000Y-101994000D01*
X148590000Y-101994000D01*
X148590000Y-102014000D01*
X148336000Y-102014000D01*
X148336000Y-101994000D01*
X148316000Y-101994000D01*
X148316000Y-101740000D01*
X148336000Y-101740000D01*
X148336000Y-100428250D01*
X148177250Y-100269500D01*
X148138000Y-100266428D01*
X148013518Y-100278688D01*
X147893820Y-100314998D01*
X147828000Y-100350180D01*
X147762180Y-100314998D01*
X147642482Y-100278688D01*
X147518000Y-100266428D01*
X146868000Y-100266428D01*
X146743518Y-100278688D01*
X146623820Y-100314998D01*
X146558000Y-100350180D01*
X146492180Y-100314998D01*
X146372482Y-100278688D01*
X146248000Y-100266428D01*
X145641793Y-100266428D01*
X145648226Y-100250898D01*
X145688000Y-100050939D01*
X145688000Y-99847061D01*
X145649200Y-99652001D01*
X146922532Y-99652001D01*
X146966001Y-99656282D01*
X147009470Y-99652001D01*
X147009478Y-99652001D01*
X147139491Y-99639196D01*
X147306314Y-99588590D01*
X147460060Y-99506412D01*
X147594818Y-99395818D01*
X147622535Y-99362045D01*
X150118001Y-96866580D01*
X150118000Y-100272337D01*
G36*
X143618000Y-99847061D02*
G01*
X143618000Y-100050939D01*
X143657774Y-100250898D01*
X143664207Y-100266428D01*
X143058000Y-100266428D01*
X142933518Y-100278688D01*
X142813820Y-100314998D01*
X142748000Y-100350180D01*
X142682180Y-100314998D01*
X142562482Y-100278688D01*
X142438000Y-100266428D01*
X142398750Y-100269500D01*
X142240000Y-100428250D01*
X142240000Y-101740000D01*
X142260000Y-101740000D01*
X142260000Y-101994000D01*
X142240000Y-101994000D01*
X142240000Y-102014000D01*
X141986000Y-102014000D01*
X141986000Y-101994000D01*
X141966000Y-101994000D01*
X141966000Y-101740000D01*
X141986000Y-101740000D01*
X141986000Y-100428250D01*
X141827250Y-100269500D01*
X141788000Y-100266428D01*
X141663518Y-100278688D01*
X141543820Y-100314998D01*
X141478000Y-100350180D01*
X141412180Y-100314998D01*
X141292482Y-100278688D01*
X141168000Y-100266428D01*
X140518000Y-100266428D01*
X140393518Y-100278688D01*
X140273820Y-100314998D01*
X140208000Y-100350180D01*
X140142180Y-100314998D01*
X140022482Y-100278688D01*
X139898000Y-100266428D01*
X139248000Y-100266428D01*
X139123518Y-100278688D01*
X139003820Y-100314998D01*
X138938000Y-100350180D01*
X138872180Y-100314998D01*
X138752482Y-100278688D01*
X138628000Y-100266428D01*
X138221007Y-100266428D01*
X137606580Y-99652001D01*
X143656800Y-99652001D01*
X143618000Y-99847061D01*
G37*
X143618000Y-99847061D02*
X143618000Y-100050939D01*
X143657774Y-100250898D01*
X143664207Y-100266428D01*
X143058000Y-100266428D01*
X142933518Y-100278688D01*
X142813820Y-100314998D01*
X142748000Y-100350180D01*
X142682180Y-100314998D01*
X142562482Y-100278688D01*
X142438000Y-100266428D01*
X142398750Y-100269500D01*
X142240000Y-100428250D01*
X142240000Y-101740000D01*
X142260000Y-101740000D01*
X142260000Y-101994000D01*
X142240000Y-101994000D01*
X142240000Y-102014000D01*
X141986000Y-102014000D01*
X141986000Y-101994000D01*
X141966000Y-101994000D01*
X141966000Y-101740000D01*
X141986000Y-101740000D01*
X141986000Y-100428250D01*
X141827250Y-100269500D01*
X141788000Y-100266428D01*
X141663518Y-100278688D01*
X141543820Y-100314998D01*
X141478000Y-100350180D01*
X141412180Y-100314998D01*
X141292482Y-100278688D01*
X141168000Y-100266428D01*
X140518000Y-100266428D01*
X140393518Y-100278688D01*
X140273820Y-100314998D01*
X140208000Y-100350180D01*
X140142180Y-100314998D01*
X140022482Y-100278688D01*
X139898000Y-100266428D01*
X139248000Y-100266428D01*
X139123518Y-100278688D01*
X139003820Y-100314998D01*
X138938000Y-100350180D01*
X138872180Y-100314998D01*
X138752482Y-100278688D01*
X138628000Y-100266428D01*
X138221007Y-100266428D01*
X137606580Y-99652001D01*
X143656800Y-99652001D01*
X143618000Y-99847061D01*
%TD*%
M02*
