%TF.GenerationSoftware,KiCad,Pcbnew,(5.1.6)-1*%
%TF.CreationDate,2021-07-08T13:54:37-04:00*%
%TF.ProjectId,Turbo-Display-V3-Simple,54757262-6f2d-4446-9973-706c61792d56,rev?*%
%TF.SameCoordinates,Original*%
%TF.FileFunction,Legend,Top*%
%TF.FilePolarity,Positive*%
%FSLAX46Y46*%
G04 Gerber Fmt 4.6, Leading zero omitted, Abs format (unit mm)*
G04 Created by KiCad (PCBNEW (5.1.6)-1) date 2021-07-08 13:54:37*
%MOMM*%
%LPD*%
G01*
G04 APERTURE LIST*
%ADD10C,0.150000*%
%ADD11C,0.200000*%
%ADD12C,0.120000*%
%ADD13C,0.254000*%
G04 APERTURE END LIST*
D10*
X150336428Y-106592714D02*
X150574523Y-107259380D01*
X150812619Y-106592714D01*
X151384047Y-106259380D02*
X151479285Y-106259380D01*
X151574523Y-106307000D01*
X151622142Y-106354619D01*
X151669761Y-106449857D01*
X151717380Y-106640333D01*
X151717380Y-106878428D01*
X151669761Y-107068904D01*
X151622142Y-107164142D01*
X151574523Y-107211761D01*
X151479285Y-107259380D01*
X151384047Y-107259380D01*
X151288809Y-107211761D01*
X151241190Y-107164142D01*
X151193571Y-107068904D01*
X151145952Y-106878428D01*
X151145952Y-106640333D01*
X151193571Y-106449857D01*
X151241190Y-106354619D01*
X151288809Y-106307000D01*
X151384047Y-106259380D01*
X152145952Y-107164142D02*
X152193571Y-107211761D01*
X152145952Y-107259380D01*
X152098333Y-107211761D01*
X152145952Y-107164142D01*
X152145952Y-107259380D01*
X153145952Y-107259380D02*
X152574523Y-107259380D01*
X152860238Y-107259380D02*
X152860238Y-106259380D01*
X152765000Y-106402238D01*
X152669761Y-106497476D01*
X152574523Y-106545095D01*
X124214714Y-81574666D02*
X124690904Y-81574666D01*
X124119476Y-81860380D02*
X124452809Y-80860380D01*
X124786142Y-81860380D01*
X124976619Y-80860380D02*
X125548047Y-80860380D01*
X125262333Y-81860380D02*
X125262333Y-80860380D01*
X125738523Y-80860380D02*
X126309952Y-80860380D01*
X126024238Y-81860380D02*
X126024238Y-80860380D01*
X126643285Y-81860380D02*
X126643285Y-81193714D01*
X126643285Y-80860380D02*
X126595666Y-80908000D01*
X126643285Y-80955619D01*
X126690904Y-80908000D01*
X126643285Y-80860380D01*
X126643285Y-80955619D01*
X127119476Y-81193714D02*
X127119476Y-81860380D01*
X127119476Y-81288952D02*
X127167095Y-81241333D01*
X127262333Y-81193714D01*
X127405190Y-81193714D01*
X127500428Y-81241333D01*
X127548047Y-81336571D01*
X127548047Y-81860380D01*
X127929000Y-81193714D02*
X128167095Y-81860380D01*
X128405190Y-81193714D02*
X128167095Y-81860380D01*
X128071857Y-82098476D01*
X128024238Y-82146095D01*
X127929000Y-82193714D01*
X128929000Y-81288952D02*
X128833761Y-81241333D01*
X128786142Y-81193714D01*
X128738523Y-81098476D01*
X128738523Y-81050857D01*
X128786142Y-80955619D01*
X128833761Y-80908000D01*
X128929000Y-80860380D01*
X129119476Y-80860380D01*
X129214714Y-80908000D01*
X129262333Y-80955619D01*
X129309952Y-81050857D01*
X129309952Y-81098476D01*
X129262333Y-81193714D01*
X129214714Y-81241333D01*
X129119476Y-81288952D01*
X128929000Y-81288952D01*
X128833761Y-81336571D01*
X128786142Y-81384190D01*
X128738523Y-81479428D01*
X128738523Y-81669904D01*
X128786142Y-81765142D01*
X128833761Y-81812761D01*
X128929000Y-81860380D01*
X129119476Y-81860380D01*
X129214714Y-81812761D01*
X129262333Y-81765142D01*
X129309952Y-81669904D01*
X129309952Y-81479428D01*
X129262333Y-81384190D01*
X129214714Y-81336571D01*
X129119476Y-81288952D01*
X130214714Y-80860380D02*
X129738523Y-80860380D01*
X129690904Y-81336571D01*
X129738523Y-81288952D01*
X129833761Y-81241333D01*
X130071857Y-81241333D01*
X130167095Y-81288952D01*
X130214714Y-81336571D01*
X130262333Y-81431809D01*
X130262333Y-81669904D01*
X130214714Y-81765142D01*
X130167095Y-81812761D01*
X130071857Y-81860380D01*
X129833761Y-81860380D01*
X129738523Y-81812761D01*
X129690904Y-81765142D01*
X131357571Y-80860380D02*
X131976619Y-80860380D01*
X131643285Y-81241333D01*
X131786142Y-81241333D01*
X131881380Y-81288952D01*
X131929000Y-81336571D01*
X131976619Y-81431809D01*
X131976619Y-81669904D01*
X131929000Y-81765142D01*
X131881380Y-81812761D01*
X131786142Y-81860380D01*
X131500428Y-81860380D01*
X131405190Y-81812761D01*
X131357571Y-81765142D01*
X132405190Y-81479428D02*
X133167095Y-81479428D01*
X133643285Y-81860380D02*
X133643285Y-80860380D01*
X133881380Y-80860380D01*
X134024238Y-80908000D01*
X134119476Y-81003238D01*
X134167095Y-81098476D01*
X134214714Y-81288952D01*
X134214714Y-81431809D01*
X134167095Y-81622285D01*
X134119476Y-81717523D01*
X134024238Y-81812761D01*
X133881380Y-81860380D01*
X133643285Y-81860380D01*
X134643285Y-81860380D02*
X134643285Y-81193714D01*
X134643285Y-80860380D02*
X134595666Y-80908000D01*
X134643285Y-80955619D01*
X134690904Y-80908000D01*
X134643285Y-80860380D01*
X134643285Y-80955619D01*
X135548047Y-81193714D02*
X135548047Y-82003238D01*
X135500428Y-82098476D01*
X135452809Y-82146095D01*
X135357571Y-82193714D01*
X135214714Y-82193714D01*
X135119476Y-82146095D01*
X135548047Y-81812761D02*
X135452809Y-81860380D01*
X135262333Y-81860380D01*
X135167095Y-81812761D01*
X135119476Y-81765142D01*
X135071857Y-81669904D01*
X135071857Y-81384190D01*
X135119476Y-81288952D01*
X135167095Y-81241333D01*
X135262333Y-81193714D01*
X135452809Y-81193714D01*
X135548047Y-81241333D01*
X136024238Y-81860380D02*
X136024238Y-81193714D01*
X136024238Y-80860380D02*
X135976619Y-80908000D01*
X136024238Y-80955619D01*
X136071857Y-80908000D01*
X136024238Y-80860380D01*
X136024238Y-80955619D01*
X136357571Y-81193714D02*
X136738523Y-81193714D01*
X136500428Y-80860380D02*
X136500428Y-81717523D01*
X136548047Y-81812761D01*
X136643285Y-81860380D01*
X136738523Y-81860380D01*
X125405190Y-82510380D02*
X125976619Y-82510380D01*
X125690904Y-83510380D02*
X125690904Y-82510380D01*
X126738523Y-82843714D02*
X126738523Y-83510380D01*
X126309952Y-82843714D02*
X126309952Y-83367523D01*
X126357571Y-83462761D01*
X126452809Y-83510380D01*
X126595666Y-83510380D01*
X126690904Y-83462761D01*
X126738523Y-83415142D01*
X127214714Y-83510380D02*
X127214714Y-82843714D01*
X127214714Y-83034190D02*
X127262333Y-82938952D01*
X127309952Y-82891333D01*
X127405190Y-82843714D01*
X127500428Y-82843714D01*
X127833761Y-83510380D02*
X127833761Y-82510380D01*
X127833761Y-82891333D02*
X127929000Y-82843714D01*
X128119476Y-82843714D01*
X128214714Y-82891333D01*
X128262333Y-82938952D01*
X128309952Y-83034190D01*
X128309952Y-83319904D01*
X128262333Y-83415142D01*
X128214714Y-83462761D01*
X128119476Y-83510380D01*
X127929000Y-83510380D01*
X127833761Y-83462761D01*
X128881380Y-83510380D02*
X128786142Y-83462761D01*
X128738523Y-83415142D01*
X128690904Y-83319904D01*
X128690904Y-83034190D01*
X128738523Y-82938952D01*
X128786142Y-82891333D01*
X128881380Y-82843714D01*
X129024238Y-82843714D01*
X129119476Y-82891333D01*
X129167095Y-82938952D01*
X129214714Y-83034190D01*
X129214714Y-83319904D01*
X129167095Y-83415142D01*
X129119476Y-83462761D01*
X129024238Y-83510380D01*
X128881380Y-83510380D01*
X130405190Y-83510380D02*
X130405190Y-82510380D01*
X130643285Y-82510380D01*
X130786142Y-82558000D01*
X130881380Y-82653238D01*
X130929000Y-82748476D01*
X130976619Y-82938952D01*
X130976619Y-83081809D01*
X130929000Y-83272285D01*
X130881380Y-83367523D01*
X130786142Y-83462761D01*
X130643285Y-83510380D01*
X130405190Y-83510380D01*
X131405190Y-83510380D02*
X131405190Y-82843714D01*
X131405190Y-82510380D02*
X131357571Y-82558000D01*
X131405190Y-82605619D01*
X131452809Y-82558000D01*
X131405190Y-82510380D01*
X131405190Y-82605619D01*
X131833761Y-83462761D02*
X131929000Y-83510380D01*
X132119476Y-83510380D01*
X132214714Y-83462761D01*
X132262333Y-83367523D01*
X132262333Y-83319904D01*
X132214714Y-83224666D01*
X132119476Y-83177047D01*
X131976619Y-83177047D01*
X131881380Y-83129428D01*
X131833761Y-83034190D01*
X131833761Y-82986571D01*
X131881380Y-82891333D01*
X131976619Y-82843714D01*
X132119476Y-82843714D01*
X132214714Y-82891333D01*
X132690904Y-82843714D02*
X132690904Y-83843714D01*
X132690904Y-82891333D02*
X132786142Y-82843714D01*
X132976619Y-82843714D01*
X133071857Y-82891333D01*
X133119476Y-82938952D01*
X133167095Y-83034190D01*
X133167095Y-83319904D01*
X133119476Y-83415142D01*
X133071857Y-83462761D01*
X132976619Y-83510380D01*
X132786142Y-83510380D01*
X132690904Y-83462761D01*
X133738523Y-83510380D02*
X133643285Y-83462761D01*
X133595666Y-83367523D01*
X133595666Y-82510380D01*
X134548047Y-83510380D02*
X134548047Y-82986571D01*
X134500428Y-82891333D01*
X134405190Y-82843714D01*
X134214714Y-82843714D01*
X134119476Y-82891333D01*
X134548047Y-83462761D02*
X134452809Y-83510380D01*
X134214714Y-83510380D01*
X134119476Y-83462761D01*
X134071857Y-83367523D01*
X134071857Y-83272285D01*
X134119476Y-83177047D01*
X134214714Y-83129428D01*
X134452809Y-83129428D01*
X134548047Y-83081809D01*
X134929000Y-82843714D02*
X135167095Y-83510380D01*
X135405190Y-82843714D02*
X135167095Y-83510380D01*
X135071857Y-83748476D01*
X135024238Y-83796095D01*
X134929000Y-83843714D01*
X124595666Y-84493714D02*
X124786142Y-85160380D01*
X124976619Y-84684190D01*
X125167095Y-85160380D01*
X125357571Y-84493714D01*
X125738523Y-85160380D02*
X125738523Y-84493714D01*
X125738523Y-84160380D02*
X125690904Y-84208000D01*
X125738523Y-84255619D01*
X125786142Y-84208000D01*
X125738523Y-84160380D01*
X125738523Y-84255619D01*
X126214714Y-85160380D02*
X126214714Y-84493714D01*
X126214714Y-84684190D02*
X126262333Y-84588952D01*
X126309952Y-84541333D01*
X126405190Y-84493714D01*
X126500428Y-84493714D01*
X127214714Y-85112761D02*
X127119476Y-85160380D01*
X126929000Y-85160380D01*
X126833761Y-85112761D01*
X126786142Y-85017523D01*
X126786142Y-84636571D01*
X126833761Y-84541333D01*
X126929000Y-84493714D01*
X127119476Y-84493714D01*
X127214714Y-84541333D01*
X127262333Y-84636571D01*
X127262333Y-84731809D01*
X126786142Y-84827047D01*
X127548047Y-84493714D02*
X127929000Y-84493714D01*
X127690904Y-84160380D02*
X127690904Y-85017523D01*
X127738523Y-85112761D01*
X127833761Y-85160380D01*
X127929000Y-85160380D01*
X128690904Y-85160380D02*
X128690904Y-84636571D01*
X128643285Y-84541333D01*
X128548047Y-84493714D01*
X128357571Y-84493714D01*
X128262333Y-84541333D01*
X128690904Y-85112761D02*
X128595666Y-85160380D01*
X128357571Y-85160380D01*
X128262333Y-85112761D01*
X128214714Y-85017523D01*
X128214714Y-84922285D01*
X128262333Y-84827047D01*
X128357571Y-84779428D01*
X128595666Y-84779428D01*
X128690904Y-84731809D01*
X129167095Y-84493714D02*
X129167095Y-85493714D01*
X129167095Y-84541333D02*
X129262333Y-84493714D01*
X129452809Y-84493714D01*
X129548047Y-84541333D01*
X129595666Y-84588952D01*
X129643285Y-84684190D01*
X129643285Y-84969904D01*
X129595666Y-85065142D01*
X129548047Y-85112761D01*
X129452809Y-85160380D01*
X129262333Y-85160380D01*
X129167095Y-85112761D01*
X130833761Y-84779428D02*
X131595666Y-84779428D01*
X132786142Y-84255619D02*
X132833761Y-84208000D01*
X132929000Y-84160380D01*
X133167095Y-84160380D01*
X133262333Y-84208000D01*
X133309952Y-84255619D01*
X133357571Y-84350857D01*
X133357571Y-84446095D01*
X133309952Y-84588952D01*
X132738523Y-85160380D01*
X133357571Y-85160380D01*
X133976619Y-84160380D02*
X134071857Y-84160380D01*
X134167095Y-84208000D01*
X134214714Y-84255619D01*
X134262333Y-84350857D01*
X134309952Y-84541333D01*
X134309952Y-84779428D01*
X134262333Y-84969904D01*
X134214714Y-85065142D01*
X134167095Y-85112761D01*
X134071857Y-85160380D01*
X133976619Y-85160380D01*
X133881380Y-85112761D01*
X133833761Y-85065142D01*
X133786142Y-84969904D01*
X133738523Y-84779428D01*
X133738523Y-84541333D01*
X133786142Y-84350857D01*
X133833761Y-84255619D01*
X133881380Y-84208000D01*
X133976619Y-84160380D01*
X134690904Y-84255619D02*
X134738523Y-84208000D01*
X134833761Y-84160380D01*
X135071857Y-84160380D01*
X135167095Y-84208000D01*
X135214714Y-84255619D01*
X135262333Y-84350857D01*
X135262333Y-84446095D01*
X135214714Y-84588952D01*
X134643285Y-85160380D01*
X135262333Y-85160380D01*
X136214714Y-85160380D02*
X135643285Y-85160380D01*
X135929000Y-85160380D02*
X135929000Y-84160380D01*
X135833761Y-84303238D01*
X135738523Y-84398476D01*
X135643285Y-84446095D01*
X124714047Y-98115428D02*
X125475952Y-98115428D01*
X125095000Y-98496380D02*
X125095000Y-97734476D01*
X124714047Y-95575428D02*
X125475952Y-95575428D01*
X132334047Y-107640428D02*
X133095952Y-107640428D01*
X132715000Y-108021380D02*
X132715000Y-107259476D01*
X129794047Y-107640428D02*
X130555952Y-107640428D01*
X141732047Y-107640428D02*
X142493952Y-107640428D01*
X139192047Y-107640428D02*
X139953952Y-107640428D01*
X139573000Y-108021380D02*
X139573000Y-107259476D01*
X134501142Y-105751380D02*
X135072571Y-105751380D01*
X134786857Y-106751380D02*
X134786857Y-105751380D01*
X135882095Y-106751380D02*
X135405904Y-106751380D01*
X135405904Y-105751380D01*
X136215428Y-106227571D02*
X136548761Y-106227571D01*
X136691619Y-106751380D02*
X136215428Y-106751380D01*
X136215428Y-105751380D01*
X136691619Y-105751380D01*
X137120190Y-106751380D02*
X137120190Y-105751380D01*
X137358285Y-105751380D01*
X137501142Y-105799000D01*
X137596380Y-105894238D01*
X137644000Y-105989476D01*
X137691619Y-106179952D01*
X137691619Y-106322809D01*
X137644000Y-106513285D01*
X137596380Y-106608523D01*
X137501142Y-106703761D01*
X137358285Y-106751380D01*
X137120190Y-106751380D01*
D11*
%TO.C,IC1*%
X137588000Y-100555000D02*
X137588000Y-93755000D01*
X137588000Y-93755000D02*
X152988000Y-93755000D01*
X152988000Y-93755000D02*
X152988000Y-100555000D01*
X152988000Y-100555000D02*
X137588000Y-100555000D01*
X137628000Y-102830000D02*
X137628000Y-100905000D01*
D12*
%TO.C,5V*%
X121733000Y-99501000D02*
X124393000Y-99501000D01*
X121733000Y-96901000D02*
X121733000Y-99501000D01*
X124393000Y-96901000D02*
X124393000Y-99501000D01*
X121733000Y-96901000D02*
X124393000Y-96901000D01*
X121733000Y-95631000D02*
X121733000Y-94301000D01*
X121733000Y-94301000D02*
X123063000Y-94301000D01*
%TO.C,IN*%
X134045000Y-106867000D02*
X134045000Y-104207000D01*
X131445000Y-106867000D02*
X134045000Y-106867000D01*
X131445000Y-104207000D02*
X134045000Y-104207000D01*
X131445000Y-106867000D02*
X131445000Y-104207000D01*
X130175000Y-106867000D02*
X128845000Y-106867000D01*
X128845000Y-106867000D02*
X128845000Y-105537000D01*
%TO.C,OUT*%
X143443000Y-104207000D02*
X143443000Y-105537000D01*
X142113000Y-104207000D02*
X143443000Y-104207000D01*
X140843000Y-104207000D02*
X140843000Y-106867000D01*
X140843000Y-106867000D02*
X138243000Y-106867000D01*
X140843000Y-104207000D02*
X138243000Y-104207000D01*
X138243000Y-104207000D02*
X138243000Y-106867000D01*
%TO.C,U1*%
X130318000Y-92015000D02*
X128668000Y-92015000D01*
X128668000Y-92015000D02*
X128668000Y-102295000D01*
X128668000Y-102295000D02*
X133968000Y-102295000D01*
X133968000Y-102295000D02*
X133968000Y-92015000D01*
X133968000Y-92015000D02*
X132318000Y-92015000D01*
X132318000Y-92015000D02*
G75*
G02*
X130318000Y-92015000I-1000000J0D01*
G01*
%TO.C,IC1*%
D13*
X145862523Y-98394761D02*
X144592523Y-98394761D01*
X145741571Y-97064285D02*
X145802047Y-97124761D01*
X145862523Y-97306190D01*
X145862523Y-97427142D01*
X145802047Y-97608571D01*
X145681095Y-97729523D01*
X145560142Y-97790000D01*
X145318238Y-97850476D01*
X145136809Y-97850476D01*
X144894904Y-97790000D01*
X144773952Y-97729523D01*
X144653000Y-97608571D01*
X144592523Y-97427142D01*
X144592523Y-97306190D01*
X144653000Y-97124761D01*
X144713476Y-97064285D01*
X145862523Y-95854761D02*
X145862523Y-96580476D01*
X145862523Y-96217619D02*
X144592523Y-96217619D01*
X144773952Y-96338571D01*
X144894904Y-96459523D01*
X144955380Y-96580476D01*
%TO.C,5V*%
D10*
X122872523Y-92753380D02*
X122396333Y-92753380D01*
X122348714Y-93229571D01*
X122396333Y-93181952D01*
X122491571Y-93134333D01*
X122729666Y-93134333D01*
X122824904Y-93181952D01*
X122872523Y-93229571D01*
X122920142Y-93324809D01*
X122920142Y-93562904D01*
X122872523Y-93658142D01*
X122824904Y-93705761D01*
X122729666Y-93753380D01*
X122491571Y-93753380D01*
X122396333Y-93705761D01*
X122348714Y-93658142D01*
X123205857Y-92753380D02*
X123539190Y-93753380D01*
X123872523Y-92753380D01*
%TO.C,IN*%
X128297380Y-106060809D02*
X127297380Y-106060809D01*
X128297380Y-105584619D02*
X127297380Y-105584619D01*
X128297380Y-105013190D01*
X127297380Y-105013190D01*
%TO.C,OUT*%
X143895380Y-106537000D02*
X143895380Y-106346523D01*
X143943000Y-106251285D01*
X144038238Y-106156047D01*
X144228714Y-106108428D01*
X144562047Y-106108428D01*
X144752523Y-106156047D01*
X144847761Y-106251285D01*
X144895380Y-106346523D01*
X144895380Y-106537000D01*
X144847761Y-106632238D01*
X144752523Y-106727476D01*
X144562047Y-106775095D01*
X144228714Y-106775095D01*
X144038238Y-106727476D01*
X143943000Y-106632238D01*
X143895380Y-106537000D01*
X143895380Y-105679857D02*
X144704904Y-105679857D01*
X144800142Y-105632238D01*
X144847761Y-105584619D01*
X144895380Y-105489380D01*
X144895380Y-105298904D01*
X144847761Y-105203666D01*
X144800142Y-105156047D01*
X144704904Y-105108428D01*
X143895380Y-105108428D01*
X143895380Y-104775095D02*
X143895380Y-104203666D01*
X144895380Y-104489380D02*
X143895380Y-104489380D01*
%TO.C,U1*%
X130556095Y-96607380D02*
X130556095Y-97416904D01*
X130603714Y-97512142D01*
X130651333Y-97559761D01*
X130746571Y-97607380D01*
X130937047Y-97607380D01*
X131032285Y-97559761D01*
X131079904Y-97512142D01*
X131127523Y-97416904D01*
X131127523Y-96607380D01*
X132127523Y-97607380D02*
X131556095Y-97607380D01*
X131841809Y-97607380D02*
X131841809Y-96607380D01*
X131746571Y-96750238D01*
X131651333Y-96845476D01*
X131556095Y-96893095D01*
%TD*%
M02*
