M48
; DRILL file {KiCad (5.1.6)-1} date 07/08/21 13:54:40
; FORMAT={-:-/ absolute / inch / decimal}
; #@! TF.CreationDate,2021-07-08T13:54:40-04:00
; #@! TF.GenerationSoftware,Kicad,Pcbnew,(5.1.6)-1
FMAT,2
INCH
T1C0.0157
T2C0.0315
T3C0.0331
T4C0.0394
%
G90
G05
T1
X4.925Y-3.91
X5.095Y-4.0665
X5.13Y-3.91
X5.455Y-3.4
X5.595Y-3.21
X5.595Y-3.935
X5.645Y-3.16
X5.695Y-3.715
X5.695Y-3.935
X5.7Y-3.145
X5.77Y-3.855
X5.845Y-3.565
X5.845Y-3.945
X5.895Y-3.565
X5.945Y-3.565
T2
X5.02Y-3.675
X5.02Y-3.775
X5.02Y-3.875
X5.02Y-3.975
X5.32Y-3.675
X5.32Y-3.775
X5.32Y-3.875
X5.32Y-3.975
T3
X5.0Y-3.475
X5.1Y-3.075
X5.1Y-3.475
X5.2Y-3.075
X5.3Y-3.075
X5.3Y-3.475
X5.4Y-3.075
X5.4Y-3.475
X5.5Y-3.075
X5.6Y-3.075
X5.7Y-3.075
X5.7Y-3.475
T4
X5.495Y-4.155
X5.595Y-4.155
X5.125Y-4.155
X5.225Y-4.155
X4.845Y-3.765
X4.845Y-3.865
T0
M30
